<svg width="20" height="20" viewBox="0 0 20 20" fill="none" xmlns="http://www.w3.org/2000/svg">
<path d="M18.75 0H1.25C0.911458 0 0.61849 0.123698 0.371094 0.371094C0.123698 0.61849 0 0.911458 0 1.25V18.75C0 19.0885 0.123698 19.3815 0.371094 19.6289C0.61849 19.8763 0.911458 20 1.25 20H18.75C19.0885 20 19.3815 19.8763 19.6289 19.6289C19.8763 19.3815 20 19.0885 20 18.75V1.25C20 1.02865 19.9447 0.820312 19.834 0.625C19.7233 0.429688 19.5703 0.276693 19.375 0.166016C19.1797 0.0553385 18.9714 0 18.75 0ZM18.75 18.75H1.25V1.25H18.75V18.75ZM4.375 6.875H5.625V8.125C5.625 8.30729 5.68685 8.45703 5.81055 8.57422C5.93424 8.69141 6.08073 8.75 6.25 8.75C6.41927 8.75 6.56576 8.69141 6.68945 8.57422C6.81315 8.45703 6.875 8.30729 6.875 8.125V6.875H8.125C8.29427 6.875 8.44075 6.81641 8.56445 6.69922C8.68815 6.58203 8.75 6.43555 8.75 6.25977C8.75 6.08398 8.68815 5.93424 8.56445 5.81055C8.44075 5.68685 8.29427 5.625 8.125 5.625H6.875V4.375C6.875 4.20573 6.81315 4.05924 6.68945 3.93555C6.56576 3.81185 6.41927 3.75 6.25 3.75C6.08073 3.75 5.93424 3.81185 5.81055 3.93555C5.68685 4.05924 5.625 4.20573 5.625 4.375V5.625H4.375C4.20573 5.625 4.05924 5.68685 3.93555 5.81055C3.81185 5.93424 3.75 6.08398 3.75 6.25977C3.75 6.43555 3.81185 6.58203 3.93555 6.69922C4.05924 6.81641 4.20573 6.875 4.375 6.875ZM8.4668 11.5527C8.3431 11.429 8.19336 11.3672 8.01758 11.3672C7.8418 11.3672 7.69531 11.4258 7.57812 11.543L6.25 12.8711L4.92188 11.543C4.80469 11.4258 4.6582 11.3672 4.48242 11.3672C4.30664 11.3672 4.1569 11.429 4.0332 11.5527C3.90951 11.6764 3.84766 11.8229 3.84766 11.9922C3.84766 12.1615 3.91276 12.3047 4.04297 12.4219L5.37109 13.75L4.04297 15.0781C3.96484 15.1562 3.90951 15.2507 3.87695 15.3613C3.8444 15.472 3.8444 15.5794 3.87695 15.6836C3.90951 15.7878 3.96484 15.8789 4.04297 15.957C4.09505 16.0221 4.16016 16.071 4.23828 16.1035C4.31641 16.1361 4.39779 16.1523 4.48242 16.1523C4.56706 16.1523 4.64844 16.1361 4.72656 16.1035C4.80469 16.071 4.86979 16.0221 4.92188 15.957L6.25 14.6484L7.57812 15.957C7.63021 16.0221 7.69531 16.071 7.77344 16.1035C7.85156 16.1361 7.93294 16.1523 8.01758 16.1523C8.10221 16.1523 8.18359 16.1361 8.26172 16.1035C8.33984 16.071 8.40495 16.0221 8.45703 15.957C8.75651 15.6706 8.75651 15.3776 8.45703 15.0781L7.12891 13.75L8.45703 12.4219C8.58724 12.3047 8.65234 12.1615 8.65234 11.9922C8.65234 11.8229 8.5905 11.6764 8.4668 11.5527ZM11.875 6.875H15.625C15.7943 6.875 15.9408 6.81641 16.0645 6.69922C16.1882 6.58203 16.25 6.43555 16.25 6.25977C16.25 6.08398 16.1882 5.93424 16.0645 5.81055C15.9408 5.68685 15.7943 5.625 15.625 5.625H11.875C11.7057 5.625 11.5592 5.68685 11.4355 5.81055C11.3118 5.93424 11.25 6.08398 11.25 6.25977C11.25 6.43555 11.3118 6.58203 11.4355 6.69922C11.5592 6.81641 11.7057 6.875 11.875 6.875ZM11.875 13.125H15.625C15.7943 13.125 15.9408 13.0664 16.0645 12.9492C16.1882 12.832 16.25 12.6855 16.25 12.5098C16.25 12.334 16.1882 12.1842 16.0645 12.0605C15.9408 11.9368 15.7943 11.875 15.625 11.875H11.875C11.7057 11.875 11.5592 11.9368 11.4355 12.0605C11.3118 12.1842 11.25 12.334 11.25 12.5098C11.25 12.6855 11.3118 12.832 11.4355 12.9492C11.5592 13.0664 11.7057 13.125 11.875 13.125ZM11.875 15.625H15.625C15.7943 15.625 15.9408 15.5664 16.0645 15.4492C16.1882 15.332 16.25 15.1855 16.25 15.0098C16.25 14.834 16.1882 14.6842 16.0645 14.5605C15.9408 14.4368 15.7943 14.375 15.625 14.375H11.875C11.7057 14.375 11.5592 14.4368 11.4355 14.5605C11.3118 14.6842 11.25 14.834 11.25 15.0098C11.25 15.1855 11.3118 15.332 11.4355 15.4492C11.5592 15.5664 11.7057 15.625 11.875 15.625Z" fill="#5661CB"/>
</svg>
