<svg width="49" height="49" viewBox="0 0 49 49" fill="none" xmlns="http://www.w3.org/2000/svg">
<path d="M29.0833 20.0583C29.0833 18.9537 29.9787 18.0583 31.0833 18.0583H32.1146C33.3981 18.0583 34.6037 18.6742 35.3558 19.7142L38.8833 24.5916H29.0833V20.0583Z" stroke="#5661CB" stroke-width="1.63333" stroke-linecap="round" stroke-linejoin="round"/>
<path d="M29.0833 24.5916V23.7749C28.6322 23.7749 28.2666 24.1406 28.2666 24.5916H29.0833ZM38.8833 24.5916H39.6999C39.6999 24.1406 39.3343 23.7749 38.8833 23.7749V24.5916ZM29.0833 31.1249H28.2666C28.2666 31.576 28.6322 31.9416 29.0833 31.9416V31.1249ZM31.0779 31.1249V31.9416C31.4439 31.9416 31.7651 31.6982 31.8641 31.346L31.0779 31.1249ZM31.1951 30.7867L31.9496 31.0992L31.9496 31.0992L31.1951 30.7867ZM32.8284 29.1534L32.5159 28.3988H32.5159L32.8284 29.1534ZM35.1383 29.1534L35.4508 28.3988L35.4508 28.3988L35.1383 29.1534ZM36.7716 30.7867L36.0171 31.0992L36.7716 30.7867ZM36.8888 31.1249L36.1026 31.346C36.2016 31.6982 36.5229 31.9416 36.8888 31.9416V31.1249ZM38.8833 31.1249V31.9416C39.3343 31.9416 39.6999 31.576 39.6999 31.1249H38.8833ZM29.0833 25.4083H38.8833V23.7749H29.0833V25.4083ZM29.8999 31.1249V24.5916H28.2666V31.1249H29.8999ZM31.0779 30.3083H29.0833V31.9416H31.0779V30.3083ZM31.8641 31.346C31.8876 31.2625 31.9161 31.1801 31.9496 31.0992L30.4406 30.4742C30.3822 30.615 30.3326 30.7586 30.2918 30.9039L31.8641 31.346ZM31.9496 31.0992C32.173 30.5598 32.6016 30.1313 33.1409 29.9079L32.5159 28.3988C31.5763 28.788 30.8298 29.5346 30.4406 30.4742L31.9496 31.0992ZM33.1409 29.9079C33.6803 29.6844 34.2864 29.6844 34.8258 29.9079L35.4508 28.3988C34.5112 28.0097 33.4555 28.0097 32.5159 28.3988L33.1409 29.9079ZM34.8258 29.9079C35.3652 30.1313 35.7937 30.5598 36.0171 31.0992L37.5261 30.4742C37.1369 29.5346 36.3904 28.788 35.4508 28.3988L34.8258 29.9079ZM36.0171 31.0992C36.0507 31.1801 36.0791 31.2625 36.1026 31.346L37.675 30.9039C37.6341 30.7586 37.5845 30.615 37.5261 30.4742L36.0171 31.0992ZM38.8833 30.3083H36.8888V31.9416H38.8833V30.3083ZM38.0666 24.5916V31.1249H39.6999V24.5916H38.0666Z" fill="#5661CB"/>
<path d="M32.8285 29.1534C33.568 28.8471 34.3989 28.8471 35.1384 29.1534V29.1534C35.8779 29.4597 36.4654 30.0472 36.7717 30.7867V30.7867C37.078 31.5262 37.078 32.3571 36.7717 33.0966V33.0966C36.4654 33.8361 35.8779 34.4236 35.1384 34.7299V34.7299C34.3989 35.0362 33.568 35.0362 32.8285 34.7299V34.7299C32.089 34.4236 31.5015 33.8361 31.1952 33.0966V33.0966C30.8889 32.3571 30.8889 31.5262 31.1952 30.7867V30.7867C31.5015 30.0472 32.089 29.4597 32.8285 29.1534V29.1534Z" stroke="#5661CB" stroke-width="1.63333" stroke-linecap="round" stroke-linejoin="round"/>
<path d="M11.1167 31.125H10.3C10.3 31.576 10.6657 31.9416 11.1167 31.9416V31.125ZM13.5196 31.125V31.9416C13.8855 31.9416 14.2068 31.6982 14.3058 31.346L13.5196 31.125ZM13.6368 30.7867L14.3913 31.0992L14.3913 31.0992L13.6368 30.7867ZM15.2701 29.1534L15.5826 29.9079L15.5826 29.9079L15.2701 29.1534ZM17.58 29.1534L17.2674 29.9079L17.2674 29.9079L17.58 29.1534ZM19.2133 30.7867L19.9678 30.4742V30.4742L19.2133 30.7867ZM19.3305 31.125L18.5443 31.346C18.6433 31.6982 18.9645 31.9416 19.3305 31.9416L19.3305 31.125ZM29.0834 31.125V31.9416C29.5344 31.9416 29.9 31.576 29.9 31.125H29.0834ZM11.9334 16.425C11.9334 15.9739 12.299 15.6083 12.75 15.6083V13.975C11.3969 13.975 10.3 15.0719 10.3 16.425H11.9334ZM11.9334 31.125L11.9334 16.425H10.3L10.3 31.125H11.9334ZM13.5196 30.3083H11.1167L11.1167 31.9416H13.5196V30.3083ZM14.3058 31.346C14.3293 31.2625 14.3577 31.1801 14.3913 31.0992L12.8823 30.4742C12.8239 30.615 12.7743 30.7586 12.7334 30.904L14.3058 31.346ZM14.3913 31.0992C14.6147 30.5598 15.0432 30.1313 15.5826 29.9079L14.9576 28.3988C14.018 28.788 13.2715 29.5346 12.8823 30.4742L14.3913 31.0992ZM15.5826 29.9079C16.122 29.6844 16.7281 29.6844 17.2674 29.9079L17.8925 28.3989C16.9529 28.0097 15.8972 28.0097 14.9576 28.3989L15.5826 29.9079ZM17.2674 29.9079C17.8068 30.1313 18.2354 30.5598 18.4588 31.0992L19.9678 30.4742C19.5786 29.5346 18.8321 28.788 17.8925 28.3988L17.2674 29.9079ZM18.4588 31.0992C18.4923 31.1801 18.5208 31.2625 18.5443 31.346L20.1166 30.904C20.0758 30.7586 20.0262 30.615 19.9678 30.4742L18.4588 31.0992ZM29.0834 30.3083L19.3305 30.3083L19.3305 31.9416L29.0834 31.9416V30.3083ZM28.2667 16.425L28.2667 31.125H29.9L29.9 16.425H28.2667ZM27.45 15.6083C27.9011 15.6083 28.2667 15.9739 28.2667 16.425H29.9C29.9 15.0719 28.8031 13.975 27.45 13.975V15.6083ZM12.75 15.6083L27.45 15.6083V13.975L12.75 13.975V15.6083Z" fill="#5661CB"/>
<path d="M15.2702 29.1534C16.0097 28.8471 16.8406 28.8471 17.5801 29.1534V29.1534C18.3196 29.4597 18.9071 30.0472 19.2134 30.7867V30.7867C19.5197 31.5262 19.5197 32.3571 19.2134 33.0966V33.0966C18.9071 33.8361 18.3196 34.4236 17.5801 34.7299V34.7299C16.8406 35.0362 16.0097 35.0362 15.2702 34.7299V34.7299C14.5307 34.4236 13.9431 33.8361 13.6368 33.0966V33.0966C13.3305 32.3571 13.3305 31.5262 13.6368 30.7867V30.7867C13.9431 30.0472 14.5307 29.4597 15.2702 29.1534V29.1534Z" stroke="#5661CB" stroke-width="1.63333" stroke-linecap="round" stroke-linejoin="round"/>
<rect x="1" y="3" width="48" height="44" rx="8" fill="#9FA6EE" fill-opacity="0.1"/>
</svg>
