<svg width="26" height="20" viewBox="0 0 26 20" fill="none" xmlns="http://www.w3.org/2000/svg">
<path d="M19.6086 9.375C19.3604 9.40625 19.1742 9.59375 19.1742 9.8125C19.1742 10.0312 19.3604 10.2188 19.6086 10.2188C19.6086 10.2188 20.3222 10.25 21.5632 11.5L22.0286 11.9688H19.6706C19.4224 11.9688 19.2362 12.1563 19.2362 12.4063C19.2362 12.6563 19.4224 12.8437 19.6706 12.8437H23.9833L23.3627 12.125C23.3317 12.0938 23.2076 11.9375 22.1527 10.9063C20.6635 9.40625 19.7016 9.375 19.6086 9.375V9.375Z" fill="#5661CB"/>
<path d="M26 12.2187L23.3628 9.5625C21.8425 7.8125 19.8878 7.53125 18.3986 7.46875V0H0V16.9375H1.83055C1.79952 17.125 1.79952 17.2813 1.79952 17.4688C1.79952 18.875 2.94749 20 4.31265 20C5.70883 20 6.82578 18.8438 6.82578 17.4688C6.82578 17.2813 6.79475 17.125 6.79475 16.9375H15.9475C15.9165 17.125 15.9165 17.2813 15.9165 17.4688C15.9165 18.875 17.0644 20 18.4296 20C19.7947 20 20.9427 18.8438 20.9427 17.4688C20.9427 17.2813 20.9117 17.0938 20.8807 16.9375H25.969V12.2187H26ZM4.31265 19.125C3.38186 19.125 2.63723 18.375 2.63723 17.4375C2.63723 17.25 2.66826 17.0937 2.73031 16.9062C2.82339 16.5625 3.0716 16.25 3.38186 16.0312C3.6611 15.8437 3.97136 15.7187 4.31265 15.7187C4.65394 15.7187 4.99523 15.8125 5.24344 16.0312C5.5537 16.25 5.77088 16.5625 5.89499 16.9062C5.92601 17.0937 5.98807 17.25 5.98807 17.4375C5.98807 18.375 5.24344 19.125 4.31265 19.125ZM16.2888 16.0625H6.45346C6.01909 15.375 5.21241 14.9063 4.34368 14.9063C3.47494 14.9063 2.66826 15.375 2.23389 16.0625H0.868735V0.875H17.5609V15.0625C17.0334 15.25 16.599 15.5938 16.2888 16.0625V16.0625ZM18.4296 19.125C17.4988 19.125 16.7542 18.375 16.7542 17.4375C16.7542 17.25 16.7852 17.0937 16.8473 16.9062C16.9403 16.5625 17.1885 16.25 17.4988 16.0312C17.778 15.8437 18.0883 15.7187 18.4296 15.7187C18.7709 15.7187 19.0811 15.8125 19.3604 16C19.6706 16.1875 19.8878 16.5312 20.0119 16.875C20.074 17.0625 20.105 17.2188 20.105 17.4063C20.074 18.375 19.3294 19.125 18.4296 19.125ZM25.1002 16.0625H20.5084C20.074 15.375 19.2983 14.9063 18.3986 14.9063H18.3675V8.34375C20.3222 8.40625 21.6563 8.96875 22.6802 10.1562L25.0692 12.5937V16.0625H25.1002Z" fill="#5661CB"/>
</svg>
