<svg width="19" height="20" viewBox="0 0 19 20" fill="none" xmlns="http://www.w3.org/2000/svg">
<path d="M6.67969 3.91406H6.53125C6.61289 3.91406 6.67969 3.84727 6.67969 3.76562V3.91406H12.3203V3.76562C12.3203 3.84727 12.3871 3.91406 12.4688 3.91406H12.3203V5.25H13.6562V3.76562C13.6562 3.11064 13.1237 2.57812 12.4688 2.57812H6.53125C5.87627 2.57812 5.34375 3.11064 5.34375 3.76562V5.25H6.67969V3.91406ZM16.0312 5.25H2.96875C2.64033 5.25 2.375 5.51533 2.375 5.84375V6.4375C2.375 6.51914 2.4418 6.58594 2.52344 6.58594H3.64414L4.10244 16.29C4.13213 16.9228 4.65537 17.4219 5.28809 17.4219H13.7119C14.3465 17.4219 14.8679 16.9246 14.8976 16.29L15.3559 6.58594H16.4766C16.5582 6.58594 16.625 6.51914 16.625 6.4375V5.84375C16.625 5.51533 16.3597 5.25 16.0312 5.25ZM13.569 16.0859H5.43096L4.98193 6.58594H14.0181L13.569 16.0859Z" fill="#5661CB"/>
</svg>
