<svg width="36" height="28" viewBox="0 0 36 28" fill="none" xmlns="http://www.w3.org/2000/svg">
<g clip-path="url(#clip0)">
<path d="M27.1503 12.8878C26.8066 12.9308 26.5488 13.1885 26.5488 13.4892C26.5488 13.79 26.8066 14.0477 27.1503 14.0477C27.1503 14.0477 28.1383 14.0907 29.8567 15.8091L30.5011 16.4534H27.2362C26.8925 16.4534 26.6347 16.7112 26.6347 17.0549C26.6347 17.3986 26.8925 17.6563 27.2362 17.6563H33.2075L32.3484 16.6682C32.3054 16.6253 32.1336 16.4105 30.6729 14.9928C28.6109 12.9308 27.2791 12.8878 27.1503 12.8878Z" fill="#5661CB"/>
<path d="M36 16.7971L32.3484 13.1456C30.2434 10.7399 27.537 10.3532 25.4749 10.2673V0H0V23.284H2.53461C2.49165 23.5418 2.49165 23.7566 2.49165 24.0143C2.49165 25.9475 4.08115 27.494 5.97136 27.494C7.90453 27.494 9.45107 25.9045 9.45107 24.0143C9.45107 23.7566 9.40811 23.5418 9.40811 23.284H22.0811C22.0382 23.5418 22.0382 23.7566 22.0382 24.0143C22.0382 25.9475 23.6277 27.494 25.5179 27.494C27.4081 27.494 28.9976 25.9045 28.9976 24.0143C28.9976 23.7566 28.9547 23.4988 28.9117 23.284H35.957V16.7971H36ZM5.97136 26.2912C4.68258 26.2912 3.65155 25.2601 3.65155 23.9714C3.65155 23.7136 3.69451 23.4988 3.78043 23.2411C3.90931 22.7685 4.25298 22.3389 4.68258 22.0382C5.06921 21.7804 5.49881 21.6086 5.97136 21.6086C6.44391 21.6086 6.91647 21.7375 7.26014 22.0382C7.68974 22.3389 7.99045 22.7685 8.16229 23.2411C8.20525 23.4988 8.29117 23.7136 8.29117 23.9714C8.29117 25.2601 7.26014 26.2912 5.97136 26.2912ZM22.5537 22.0811H8.93556C8.33413 21.136 7.21718 20.4916 6.01432 20.4916C4.81146 20.4916 3.69451 21.136 3.09308 22.0811H1.20286V1.20286H24.315V20.7064C23.5847 20.9642 22.9833 21.4368 22.5537 22.0811ZM25.5179 26.2912C24.2291 26.2912 23.1981 25.2601 23.1981 23.9714C23.1981 23.7136 23.241 23.4988 23.327 23.2411C23.4558 22.7685 23.7995 22.3389 24.2291 22.0382C24.6158 21.7804 25.0453 21.6086 25.5179 21.6086C25.9905 21.6086 26.42 21.7375 26.8067 21.9952C27.2363 22.253 27.537 22.7255 27.7088 23.1981C27.7947 23.4558 27.8377 23.6706 27.8377 23.9284C27.7947 25.2601 26.7637 26.2912 25.5179 26.2912ZM34.7542 22.0811H28.3962C27.7947 21.136 26.7208 20.4916 25.4749 20.4916H25.432V11.4702C28.1384 11.5561 29.9857 12.3294 31.4033 13.9618L34.7112 17.3126V22.0811H34.7542Z" fill="#5661CB"/>
</g>
<defs>
<clipPath id="clip0">
<rect width="36" height="27.494" fill="white"/>
</clipPath>
</defs>
</svg>
