<svg width="12" height="6" viewBox="0 0 12 6" fill="none" xmlns="http://www.w3.org/2000/svg">
<path fill-rule="evenodd" clip-rule="evenodd" d="M11.0157 0.125877C11.0556 0.165677 11.0873 0.212958 11.1089 0.265012C11.1305 0.317066 11.1416 0.37287 11.1416 0.429228C11.1416 0.485585 11.1305 0.541389 11.1089 0.593443C11.0873 0.645497 11.0556 0.692779 11.0157 0.732579L5.87418 5.87412C5.83438 5.91402 5.7871 5.94568 5.73504 5.96728C5.68299 5.98888 5.62719 6 5.57083 6C5.51447 6 5.45867 5.98888 5.40661 5.96728C5.35456 5.94568 5.30728 5.91402 5.26748 5.87412L0.125934 0.732579C0.0454799 0.652125 0.000282288 0.543007 0.000282288 0.429228C0.000282288 0.315449 0.0454799 0.20633 0.125934 0.125877C0.206387 0.0454229 0.315506 0.000224329 0.429285 0.000224329C0.543064 0.000224329 0.652183 0.0454229 0.732636 0.125877L5.57083 4.96493L10.409 0.125877C10.4488 0.0859754 10.4961 0.0543181 10.5482 0.0327181C10.6002 0.0111181 10.656 0 10.7124 0C10.7687 0 10.8245 0.0111181 10.8766 0.0327181C10.9286 0.0543181 10.9759 0.0859754 11.0157 0.125877V0.125877Z" fill="#272727"/>
</svg>
