<svg width="50" height="49" viewBox="0 0 50 49" fill="none" xmlns="http://www.w3.org/2000/svg">
<path d="M31.096 15.7853L19.4883 34.2157" stroke="#5661CB" stroke-width="1.63333" stroke-linecap="round" stroke-linejoin="round"/>
<path d="M19.2187 21.1422C18.0854 20.1425 18.0855 18.5218 19.2187 17.5221V17.5221C20.352 16.5225 22.1894 16.5225 23.3227 17.5221V17.5221C24.456 18.5218 24.456 20.1425 23.3227 21.1422V21.1422C22.1894 22.1418 20.352 22.1418 19.2187 21.1422V21.1422Z" stroke="#5661CB" stroke-width="1.63333" stroke-linecap="round" stroke-linejoin="round"/>
<path d="M27.3442 32.4781C26.2109 31.4785 26.2109 29.8577 27.3442 28.8581V28.8581C28.4775 27.8584 30.3149 27.8584 31.4482 28.8581V28.8581C32.5814 29.8577 32.5814 31.4785 31.4482 32.4781V32.4781C30.3149 33.4778 28.4775 33.4778 27.3442 32.4781V32.4781Z" stroke="#5661CB" stroke-width="1.63333" stroke-linecap="round" stroke-linejoin="round"/>
<rect x="1.33325" y="3" width="48" height="44" rx="8" fill="#9FA6EE" fill-opacity="0.1"/>
</svg>
