<svg width="31" height="31" viewBox="0 0 31 31" fill="none" xmlns="http://www.w3.org/2000/svg">
<g clip-path="url(#clip0)">
<path d="M17.2267 2.10501V4.38186H19.5035C18.7303 3.56563 17.8711 2.70644 17.2267 2.10501Z" fill="#5661CB"/>
<path d="M3.52271 10.3962C3.52271 10.611 3.7375 10.8258 3.9523 10.8258H17.3986C17.6134 10.8258 17.8282 10.611 17.8282 10.3962C17.8282 10.1814 17.6134 9.96658 17.3986 9.96658H3.9523C3.7375 9.96658 3.52271 10.1814 3.52271 10.3962ZM17.3986 13.4033H3.9523C3.7375 13.4033 3.52271 13.6181 3.52271 13.8329C3.52271 14.0477 3.7375 14.2625 3.9523 14.2625H17.3986C17.6134 14.2625 17.8282 14.0477 17.8282 13.8329C17.8282 13.6181 17.6564 13.4033 17.3986 13.4033ZM17.3986 16.8401H3.9523C3.7375 16.8401 3.52271 17.0549 3.52271 17.2697C3.52271 17.4845 3.7375 17.6993 3.9523 17.6993H17.3986C17.6134 17.6993 17.8282 17.4845 17.8282 17.2697C17.8282 17.0549 17.6564 16.8401 17.3986 16.8401ZM17.3986 20.2768H3.9523C3.7375 20.2768 3.52271 20.4916 3.52271 20.7064C3.52271 20.9212 3.7375 21.136 3.9523 21.136H17.3986C17.6134 21.136 17.8282 20.9212 17.8282 20.7064C17.8282 20.4487 17.6564 20.2768 17.3986 20.2768Z" fill="#5661CB"/>
<path d="M21.0931 4.29594C18.4726 1.63246 17.5274 0.687351 17.0979 0.343675C17.0119 0.214797 16.8401 0.128878 16.6253 0.128878H0.601432C0.257757 0.128878 0 0.386635 0 0.687351V29.8998C0 30.2434 0.257757 30.5012 0.601432 30.5012H20.7924C21.0931 30.5012 21.3938 30.2434 21.3938 29.8998V4.85442C21.3938 4.72554 21.3508 4.5537 21.222 4.46778C21.179 4.42482 21.136 4.3389 21.0931 4.29594ZM17.2267 2.10501C17.8711 2.70644 18.7303 3.60859 19.5036 4.38186H17.2267V2.10501ZM20.1909 29.3413H1.1599V1.28878H16.1098V4.94033C16.1098 5.06921 16.1527 5.24105 16.2816 5.32697C16.4105 5.45585 16.5394 5.49881 16.6683 5.49881H20.1909V29.3413ZM30.3294 0H24.6587C24.315 0 24.0573 0.257757 24.0573 0.601432V29.8998C24.0573 30.2005 24.315 30.5012 24.6587 30.5012H30.3294C30.6301 30.5012 30.9308 30.2434 30.9308 29.8998V0.601432C30.8878 0.257757 30.6301 0 30.3294 0ZM29.7279 2.66348H28.2673C28.0525 2.66348 27.8377 2.87828 27.8377 3.09308C27.8377 3.30788 28.0525 3.52267 28.2673 3.52267H29.7279V6.10024H28.2673C28.0525 6.10024 27.8377 6.31504 27.8377 6.52983C27.8377 6.74463 28.0525 6.95943 28.2673 6.95943H29.7279V9.53699H28.2673C28.0525 9.53699 27.8377 9.75179 27.8377 9.96659C27.8377 10.1814 28.0525 10.3962 28.2673 10.3962H29.7279V12.9737H28.2673C28.0525 12.9737 27.8377 13.1885 27.8377 13.4033C27.8377 13.6181 28.0525 13.8329 28.2673 13.8329H29.7279V15.9379H28.2673C28.0525 15.9379 27.8377 16.1527 27.8377 16.3675C27.8377 16.5823 28.0525 16.7971 28.2673 16.7971H29.7279V19.3747H28.2673C28.0525 19.3747 27.8377 19.5895 27.8377 19.8043C27.8377 20.0191 28.0525 20.2339 28.2673 20.2339H29.7279V22.8115H28.2673C28.0525 22.8115 27.8377 23.0263 27.8377 23.2411C27.8377 23.4558 28.0525 23.6706 28.2673 23.6706H29.7279V26.2482H28.2673C28.0525 26.2482 27.8377 26.463 27.8377 26.6778C27.8377 26.8926 28.0525 27.1074 28.2673 27.1074H29.7279V29.2983H25.2172V1.1599H29.7279V2.66348Z" fill="#5661CB"/>
</g>
<defs>
<clipPath id="clip0">
<rect width="30.8878" height="30.5012" fill="white"/>
</clipPath>
</defs>
</svg>
