<svg width="23" height="26" viewBox="0 0 23 26" fill="none" xmlns="http://www.w3.org/2000/svg">
<path d="M11.377 25.1012C11.3612 25.1152 11.3457 25.1288 11.3305 25.1421C11.3154 25.1288 11.2999 25.1152 11.284 25.1012C10.9859 24.839 10.5587 24.4555 10.0455 23.9731C9.01818 23.0075 7.65033 21.6495 6.28447 20.0775C4.91668 18.5033 3.563 16.7282 2.55431 14.9287C1.54058 13.1202 0.90708 11.3428 0.90708 9.75C0.90708 7.36516 1.98234 5.0584 3.92996 3.34356C5.88025 1.62636 8.54124 0.65 11.3305 0.65C14.1198 0.65 16.7808 1.62636 18.7311 3.34356C20.6787 5.0584 21.754 7.36516 21.754 9.75C21.754 11.3428 21.1205 13.1202 20.1068 14.9287C19.0981 16.7282 17.7444 18.5033 16.3766 20.0775C15.0107 21.6495 13.6429 23.0075 12.6156 23.9731C12.1024 24.4555 11.6752 24.839 11.377 25.1012ZM11.3305 15.275C12.9465 15.275 14.5104 14.7105 15.6751 13.685C16.8425 12.6571 17.5173 11.244 17.5173 9.75C17.5173 8.25605 16.8425 6.84288 15.6751 5.81501C14.5104 4.78948 12.9465 4.225 11.3305 4.225C9.71454 4.225 8.15067 4.78948 6.98594 5.81501C5.81854 6.84288 5.14381 8.25605 5.14381 9.75C5.14381 11.244 5.81854 12.6571 6.98594 13.685C8.15067 14.7105 9.71454 15.275 11.3305 15.275Z" stroke="#5661CB" stroke-width="1.3"/>
</svg>
