<svg width="29" height="31" viewBox="0 0 29 31" fill="none" xmlns="http://www.w3.org/2000/svg">
<g clip-path="url(#clip0)">
<path d="M28.5679 29.7279C28.4391 29.3842 27.5369 27.2363 26.4629 25.6897C26.0763 25.1313 25.6896 24.6587 25.2601 24.401C24.6586 23.9714 23.6706 23.6706 22.9402 23.4558C22.7684 23.4129 22.6395 23.3699 22.4677 23.327L22.2529 23.1981C21.6515 23.0263 21.6515 23.0263 20.7493 22.7255L20.5345 22.6826C19.3317 22.2959 18.2577 21.9523 17.6992 21.8234V19.3747C18.3436 18.6874 20.7493 15.895 21.3078 12.0286C21.3507 11.8568 21.3507 11.642 21.3937 11.4702C22.0811 11.1265 22.5107 10.6969 22.7254 10.1814C23.198 9.1074 22.5107 8.11933 22.2099 7.7327C22.124 6.40095 21.7803 4.03819 20.1479 2.27685C18.7732 0.77327 16.797 0 14.2624 0C12.1574 0 10.439 0.644391 9.15027 1.97613C7.34597 3.82339 6.87342 6.44391 6.7875 7.77566C6.44382 8.16229 5.75647 9.1074 6.18607 10.1384C6.40086 10.6539 6.83046 11.0835 7.51781 11.4272C7.51781 11.599 7.56077 11.8138 7.56077 12.0286C7.56077 12.1146 7.56077 12.2005 7.60373 12.2864C8.11924 16.7112 10.1383 18.8162 10.8686 19.3747V21.7804C9.06435 22.2959 3.65146 23.9284 2.66339 24.8735C2.66339 24.8735 2.66339 24.9165 2.62043 24.9165C1.0739 26.463 0.0858285 29.8998 0.0428691 30.0286C-0.0430498 30.3294 0.128788 30.6301 0.429504 30.673C0.472463 30.716 0.515423 30.716 0.601342 30.716C0.859098 30.716 1.0739 30.5442 1.11685 30.3294C1.15981 30.2864 2.10492 26.9785 3.43666 25.5609C3.69442 25.3031 4.63953 24.8735 5.84239 24.4439V30.4582C5.84239 30.673 6.01423 30.8449 6.22903 30.8449C6.44382 30.8449 6.61566 30.673 6.61566 30.4582V24.1862C6.95934 24.0573 7.34597 23.9284 7.68965 23.7995V30.4582C7.68965 30.673 7.86148 30.8449 8.07628 30.8449C8.33404 30.8449 8.46292 30.673 8.46292 30.4582V23.5847C9.5369 23.2411 10.6538 22.8974 11.556 22.6826C11.8138 22.6396 11.9426 22.4248 11.9426 22.1671V19.1169C11.9426 18.9451 11.8567 18.8162 11.6849 18.6874C11.6419 18.6874 9.23619 16.926 8.63475 12.1575C8.63475 12.0716 8.63475 11.9857 8.59179 11.8998C10.0524 12.2864 12.0286 12.4582 14.6061 12.4582C17.0118 12.4582 18.9021 12.2864 20.2338 11.8998C19.5894 15.852 16.797 18.7303 16.7541 18.7733C16.6682 18.8592 16.5822 19.031 16.5822 19.1599V22.253C16.5822 22.5107 16.7541 22.6826 16.9689 22.7685C16.9689 22.7685 18.4725 23.2411 20.1479 23.7566V30.5012C20.1479 30.716 20.3197 30.8878 20.5345 30.8878C20.7923 30.8878 20.9212 30.716 20.9212 30.5012V23.9284C21.3078 24.0573 21.4367 24.1002 21.8663 24.2291L22.0381 24.2721V30.4582C22.0381 30.673 22.2099 30.8449 22.4247 30.8449C22.6395 30.8449 22.8114 30.673 22.8114 30.4582V24.5298C23.4558 24.7446 24.1861 25.0024 24.6157 25.2601C25.6467 25.9475 27.1073 28.9976 27.5369 30.1146C27.6228 30.2864 27.7947 30.4153 28.0095 30.4153C28.0524 30.4153 28.1383 30.4153 28.2243 30.3723C28.5679 30.3294 28.6968 29.9857 28.5679 29.7279ZM7.13117 9.75179C6.87342 9.15036 7.64669 8.33413 7.64669 8.33413C7.77557 8.20525 7.81853 8.03341 7.81853 7.81862C7.9474 6.61575 8.377 4.25298 9.92354 2.66348C10.525 2.06205 11.2123 1.63246 12.0715 1.33174V3.43675C12.0715 3.65155 12.2433 3.82339 12.4581 3.82339C12.7159 3.82339 12.8448 3.65155 12.8448 3.43675V1.20286C13.1885 1.1599 13.5321 1.11695 13.9188 1.07399V4.03819C13.9188 4.25298 14.0906 4.42482 14.3054 4.42482C14.5632 4.42482 14.692 4.25298 14.692 4.03819V1.07399C15.0357 1.07399 15.3794 1.11695 15.6801 1.1599V3.43675C15.6801 3.65155 15.8519 3.82339 16.0667 3.82339C16.2815 3.82339 16.4534 3.65155 16.4534 3.43675V1.33174C17.6133 1.63246 18.5584 2.19093 19.2887 2.9642C20.7493 4.5537 21.0071 6.78759 21.05 7.94749H21.093C21.093 8.07637 21.136 8.20525 21.2219 8.33413C21.2648 8.33413 21.9522 9.1074 21.6944 9.75179C21.4796 10.2673 20.3627 11.3842 14.5632 11.3842C8.46292 11.4272 7.34597 10.2673 7.13117 9.75179Z" fill="white"/>
<path d="M19.8472 8.63483C19.8042 8.42004 19.5894 8.2482 19.3746 8.33412C16.1956 8.97851 12.9307 8.97851 9.75173 8.37708L9.49397 8.33412C9.23621 8.29116 9.06437 8.42004 9.02141 8.63483C8.97846 8.89259 9.10733 9.06443 9.32213 9.10739L9.57989 9.15035C11.1694 9.45106 12.8018 9.6229 14.4343 9.6229C16.1527 9.6229 17.8281 9.45106 19.5465 9.10739C19.7613 9.02147 19.8902 8.80667 19.8472 8.63483Z" fill="#5661CB"/>
</g>
<defs>
<clipPath id="clip0">
<rect width="28.611" height="30.8878" fill="white"/>
</clipPath>
</defs>
</svg>
