<svg width="116" height="23" viewBox="0 0 116 23" fill="none" xmlns="http://www.w3.org/2000/svg">
<path d="M0 0H116C111.827 11 111.41 11 116 23H0V0Z" fill="#D41A36"/>
<path d="M22.6816 6.04688V16H21.3691V7.12695H17.8008L17.623 11.0713C17.5547 12.3929 17.418 13.3864 17.2129 14.0518C17.0124 14.7171 16.7161 15.207 16.3242 15.5215C15.9323 15.8314 15.4082 15.9909 14.752 16H14.3213V14.9268L14.5947 14.9131C15.0186 14.8812 15.3444 14.7445 15.5723 14.5029C15.8001 14.2568 15.9733 13.8672 16.0918 13.334C16.2103 12.8008 16.2946 11.9805 16.3447 10.873L16.5498 6.04688H22.6816ZM27.2891 14.1475L29.0117 8.60352H30.3652L27.3916 17.1416C26.9313 18.3721 26.1999 18.9873 25.1973 18.9873L24.958 18.9668L24.4863 18.8779V17.8525L24.8281 17.8799C25.2565 17.8799 25.5892 17.7933 25.8262 17.6201C26.0677 17.4469 26.266 17.1302 26.4209 16.6699L26.7012 15.918L24.0625 8.60352H25.4434L27.2891 14.1475ZM37.085 16H35.8135V13.3203C35.2575 13.4661 34.6878 13.5391 34.1045 13.5391C33.1794 13.5391 32.473 13.3021 31.9854 12.8281C31.5023 12.3542 31.2562 11.6797 31.2471 10.8047V8.59668H32.5117V10.8457C32.5345 11.9486 33.0654 12.5 34.1045 12.5C34.6878 12.5 35.2575 12.4271 35.8135 12.2812V8.60352H37.085V16ZM40.4961 8.60352V14.9678H43.2031V8.60352H44.4678V14.9678H47.168V8.60352H48.4395V16H39.2246V8.60352H40.4961ZM55.002 16C54.929 15.8542 54.8698 15.5944 54.8242 15.2207C54.2363 15.8314 53.5345 16.1367 52.7188 16.1367C51.9896 16.1367 51.3903 15.9316 50.9209 15.5215C50.4561 15.1068 50.2236 14.5827 50.2236 13.9492C50.2236 13.179 50.5153 12.582 51.0986 12.1582C51.6865 11.7298 52.5114 11.5156 53.5732 11.5156H54.8037V10.9346C54.8037 10.4925 54.6715 10.1416 54.4072 9.88184C54.1429 9.61751 53.7533 9.48535 53.2383 9.48535C52.7871 9.48535 52.4089 9.59928 52.1035 9.82715C51.7982 10.055 51.6455 10.3307 51.6455 10.6543H50.374C50.374 10.2852 50.5039 9.92969 50.7637 9.58789C51.028 9.24154 51.3835 8.9681 51.8301 8.76758C52.2812 8.56706 52.7757 8.4668 53.3135 8.4668C54.1657 8.4668 54.8333 8.68099 55.3164 9.10938C55.7995 9.5332 56.0501 10.1188 56.0684 10.8662V14.2705C56.0684 14.9495 56.1549 15.4896 56.3281 15.8906V16H55.002ZM52.9033 15.0361C53.2998 15.0361 53.6758 14.9336 54.0312 14.7285C54.3867 14.5234 54.6442 14.2568 54.8037 13.9287V12.4111H53.8125C52.263 12.4111 51.4883 12.8646 51.4883 13.7715C51.4883 14.168 51.6204 14.4779 51.8848 14.7012C52.1491 14.9245 52.4886 15.0361 52.9033 15.0361ZM63.7041 8.60352V16H62.4326V13.1221H60.5254L58.7822 16H57.415L59.2744 12.9307C58.8005 12.7575 58.4359 12.4909 58.1807 12.1309C57.93 11.7663 57.8047 11.3424 57.8047 10.8594C57.8047 10.1849 58.0576 9.64258 58.5635 9.23242C59.0693 8.81771 59.7461 8.60807 60.5938 8.60352H63.7041ZM59.0762 10.873C59.0762 11.2331 59.1992 11.5247 59.4453 11.748C59.6914 11.9668 60.0173 12.0785 60.4229 12.083H62.4326V9.62891H60.6143C60.1449 9.62891 59.7712 9.74512 59.4932 9.97754C59.2152 10.2054 59.0762 10.5039 59.0762 10.873ZM69.3164 8.60352H70.5879V14.9678H73.9922V8.60352H75.2568V14.9678H76.1387L76.0156 18.1943H74.8809V16H69.3164V8.60352ZM80.5752 16.1367C79.5726 16.1367 78.7568 15.8086 78.1279 15.1523C77.499 14.4915 77.1846 13.6097 77.1846 12.5068V12.2744C77.1846 11.5407 77.3236 10.8867 77.6016 10.3125C77.8841 9.73372 78.276 9.28255 78.7773 8.95898C79.2832 8.63086 79.8301 8.4668 80.418 8.4668C81.3796 8.4668 82.127 8.78353 82.6602 9.41699C83.1934 10.0505 83.46 10.9574 83.46 12.1377V12.6641H78.4492C78.4674 13.3932 78.6794 13.9834 79.085 14.4346C79.4951 14.8812 80.0146 15.1045 80.6436 15.1045C81.0902 15.1045 81.4684 15.0133 81.7783 14.8311C82.0882 14.6488 82.3594 14.4072 82.5918 14.1064L83.3643 14.708C82.7445 15.6605 81.8148 16.1367 80.5752 16.1367ZM80.418 9.50586C79.9076 9.50586 79.4792 9.69271 79.1328 10.0664C78.7865 10.4355 78.5723 10.9551 78.4902 11.625H82.1953V11.5293C82.1589 10.8867 81.9857 10.39 81.6758 10.0391C81.3659 9.68359 80.9466 9.50586 80.418 9.50586ZM90.9727 16H89.708V12.8418H86.3105V16H85.0391V8.60352H86.3105V11.8096H89.708V8.60352H90.9727V16ZM97.5762 16C97.5033 15.8542 97.444 15.5944 97.3984 15.2207C96.8105 15.8314 96.1087 16.1367 95.293 16.1367C94.5638 16.1367 93.9645 15.9316 93.4951 15.5215C93.0303 15.1068 92.7979 14.5827 92.7979 13.9492C92.7979 13.179 93.0895 12.582 93.6729 12.1582C94.2607 11.7298 95.0856 11.5156 96.1475 11.5156H97.3779V10.9346C97.3779 10.4925 97.2458 10.1416 96.9814 9.88184C96.7171 9.61751 96.3275 9.48535 95.8125 9.48535C95.3613 9.48535 94.9831 9.59928 94.6777 9.82715C94.3724 10.055 94.2197 10.3307 94.2197 10.6543H92.9482C92.9482 10.2852 93.0781 9.92969 93.3379 9.58789C93.6022 9.24154 93.9577 8.9681 94.4043 8.76758C94.8555 8.56706 95.3499 8.4668 95.8877 8.4668C96.7399 8.4668 97.4076 8.68099 97.8906 9.10938C98.3737 9.5332 98.6243 10.1188 98.6426 10.8662V14.2705C98.6426 14.9495 98.7292 15.4896 98.9023 15.8906V16H97.5762ZM95.4775 15.0361C95.874 15.0361 96.25 14.9336 96.6055 14.7285C96.9609 14.5234 97.2184 14.2568 97.3779 13.9287V12.4111H96.3867C94.8372 12.4111 94.0625 12.8646 94.0625 13.7715C94.0625 14.168 94.1947 14.4779 94.459 14.7012C94.7233 14.9245 95.0628 15.0361 95.4775 15.0361Z" fill="white"/>
</svg>
