<svg width="17" height="16" viewBox="0 0 17 16" fill="none" xmlns="http://www.w3.org/2000/svg">
<path fill-rule="evenodd" clip-rule="evenodd" d="M3.04364 15.2478C2.96076 15.7195 3.42613 16.0882 3.83625 15.8778L8.50053 13.4809L13.1638 15.8778C13.5739 16.0882 14.0392 15.7195 13.9564 15.2489L13.0745 10.2233L16.8176 6.65765C17.1672 6.32403 16.9855 5.71417 16.5169 5.64829L11.3129 4.90881L8.99246 0.311459C8.94826 0.218268 8.87852 0.139532 8.79134 0.0843993C8.70417 0.0292665 8.60314 0 8.5 0C8.39686 0 8.29583 0.0292665 8.20866 0.0843993C8.12148 0.139532 8.05175 0.218268 8.00754 0.311459L5.68709 4.90987L0.48306 5.64936C0.0145065 5.71523 -0.167178 6.32509 0.182378 6.65871L3.92549 10.2244L3.04364 15.2499V15.2478ZM8.2551 12.3079L4.3388 14.3203L5.07616 10.116C5.09343 10.0192 5.08667 9.9197 5.05648 9.82615C5.02628 9.73259 4.97357 9.64789 4.90298 9.57947L1.81541 6.6364L6.12058 6.02441C6.20972 6.01095 6.29428 5.97608 6.367 5.92279C6.43972 5.8695 6.49844 5.79937 6.53813 5.71842L8.50053 1.83187L10.4619 5.71842C10.5016 5.79937 10.5603 5.8695 10.633 5.92279C10.7057 5.97608 10.7903 6.01095 10.8794 6.02441L15.1846 6.63534L12.097 9.57841C12.0262 9.64688 11.9733 9.73176 11.9431 9.82553C11.9129 9.9193 11.9063 10.0191 11.9238 10.116L12.6612 14.3203L8.7449 12.3079C8.66917 12.2689 8.5852 12.2485 8.5 12.2485C8.4148 12.2485 8.33083 12.2689 8.2551 12.3079Z" fill="#5661CB"/>
</svg>
