<svg width="22" height="21" viewBox="0 0 22 21" fill="none" xmlns="http://www.w3.org/2000/svg">
<path d="M10.3348 1.18944C10.5756 0.589966 11.4242 0.589964 11.6649 1.18943L13.7978 6.50071C13.9003 6.75599 14.1399 6.93006 14.4143 6.94867L20.1248 7.33586C20.7693 7.37957 21.0315 8.18667 20.5358 8.60086L16.1435 12.2706C15.9324 12.447 15.8409 12.7286 15.908 12.9954L17.3044 18.546C17.462 19.1725 16.7755 19.6713 16.2283 19.3278L11.3809 16.2846C11.1479 16.1383 10.8518 16.1383 10.6188 16.2846L5.7714 19.3278C5.22429 19.6713 4.53773 19.1725 4.69533 18.546L6.0917 12.9954C6.15882 12.7286 6.0673 12.447 5.8562 12.2706L1.46396 8.60086C0.968225 8.18667 1.23047 7.37957 1.87499 7.33586L7.5854 6.94867C7.85986 6.93006 8.09945 6.75599 8.20196 6.50071L10.3348 1.18944Z" stroke="#5661CB" stroke-width="1.43333" stroke-linecap="square"/>
</svg>
