<svg width="157" height="23" viewBox="0 0 157 23" fill="none" xmlns="http://www.w3.org/2000/svg">
<path d="M0 0H157C151.353 11 150.788 11 157 23H0V0Z" fill="#5661CB"/>
<path d="M22.7568 17H21.4375V8.12695H16.5293V17H15.2168V7.04688H22.7568V17ZM31.1992 13.3838C31.1992 14.5094 30.9417 15.4163 30.4268 16.1045C29.9118 16.7926 29.2145 17.1367 28.335 17.1367C27.4372 17.1367 26.7308 16.8519 26.2158 16.2822V19.8438H24.9512V9.60352H26.1064L26.168 10.4238C26.6829 9.78581 27.3984 9.4668 28.3145 9.4668C29.2031 9.4668 29.9049 9.80176 30.4199 10.4717C30.9395 11.1416 31.1992 12.0736 31.1992 13.2676V13.3838ZM29.9346 13.2402C29.9346 12.4062 29.7568 11.7477 29.4014 11.2646C29.0459 10.7816 28.5583 10.54 27.9385 10.54C27.1729 10.54 26.5986 10.8796 26.2158 11.5586V15.0928C26.5941 15.7673 27.1729 16.1045 27.9521 16.1045C28.5583 16.1045 29.0391 15.8652 29.3945 15.3867C29.7546 14.9036 29.9346 14.1882 29.9346 13.2402ZM37.5977 9.60352H38.8623V17H37.5977V11.6064L34.1865 17H32.9219V9.60352H34.1865V15.0039L37.5977 9.60352ZM41.0088 17V9.60352H43.8936C44.8779 9.60352 45.6322 9.77669 46.1562 10.123C46.6849 10.4648 46.9492 10.9684 46.9492 11.6338C46.9492 11.9756 46.8467 12.2855 46.6416 12.5635C46.4365 12.8369 46.1335 13.0465 45.7324 13.1924C46.179 13.2972 46.5368 13.5023 46.8057 13.8076C47.0791 14.113 47.2158 14.4775 47.2158 14.9014C47.2158 15.5804 46.9652 16.0999 46.4639 16.46C45.9671 16.82 45.263 17 44.3516 17H41.0088ZM42.2734 13.7529V15.9814H44.3652C44.8939 15.9814 45.2881 15.8835 45.5479 15.6875C45.8122 15.4915 45.9443 15.2158 45.9443 14.8604C45.9443 14.1221 45.402 13.7529 44.3174 13.7529H42.2734ZM42.2734 12.7412H43.9072C45.0921 12.7412 45.6846 12.3949 45.6846 11.7021C45.6846 11.0094 45.124 10.6517 44.0029 10.6289H42.2734V12.7412ZM51.96 17.1367C50.9574 17.1367 50.1416 16.8086 49.5127 16.1523C48.8838 15.4915 48.5693 14.6097 48.5693 13.5068V13.2744C48.5693 12.5407 48.7083 11.8867 48.9863 11.3125C49.2689 10.7337 49.6608 10.2826 50.1621 9.95898C50.668 9.63086 51.2148 9.4668 51.8027 9.4668C52.7643 9.4668 53.5117 9.78353 54.0449 10.417C54.5781 11.0505 54.8447 11.9574 54.8447 13.1377V13.6641H49.834C49.8522 14.3932 50.0641 14.9834 50.4697 15.4346C50.8799 15.8812 51.3994 16.1045 52.0283 16.1045C52.4749 16.1045 52.8532 16.0133 53.1631 15.8311C53.473 15.6488 53.7441 15.4072 53.9766 15.1064L54.749 15.708C54.1292 16.6605 53.1995 17.1367 51.96 17.1367ZM51.8027 10.5059C51.2923 10.5059 50.8639 10.6927 50.5176 11.0664C50.1712 11.4355 49.957 11.9551 49.875 12.625H53.5801V12.5293C53.5436 11.8867 53.3704 11.39 53.0605 11.0391C52.7507 10.6836 52.3314 10.5059 51.8027 10.5059ZM60.3818 11.627C60.3818 11.2806 60.2497 11.0072 59.9854 10.8066C59.721 10.6016 59.3587 10.499 58.8984 10.499C58.4518 10.499 58.0781 10.6152 57.7773 10.8477C57.4811 11.0801 57.333 11.3535 57.333 11.668H56.0752C56.0752 11.0254 56.3441 10.499 56.8818 10.0889C57.4196 9.67871 58.0918 9.47363 58.8984 9.47363C59.7643 9.47363 60.4388 9.66048 60.9219 10.0342C61.4049 10.4033 61.6465 10.932 61.6465 11.6201C61.6465 11.9528 61.5462 12.2581 61.3457 12.5361C61.1452 12.8141 60.8604 13.0352 60.4912 13.1992C61.3525 13.4909 61.7832 14.0651 61.7832 14.9219C61.7832 15.6009 61.5212 16.1387 60.9971 16.5352C60.473 16.9316 59.7734 17.1299 58.8984 17.1299C58.0462 17.1299 57.3421 16.9225 56.7861 16.5078C56.2347 16.0885 55.959 15.5234 55.959 14.8125H57.2168C57.2168 15.1725 57.3763 15.4824 57.6953 15.7422C58.0189 15.9974 58.4199 16.125 58.8984 16.125C59.3815 16.125 59.7712 16.0133 60.0674 15.79C60.3636 15.5667 60.5117 15.2773 60.5117 14.9219C60.5117 14.5072 60.3864 14.2109 60.1357 14.0332C59.8896 13.8509 59.5046 13.7598 58.9805 13.7598H57.7158V12.6934H59.0898C59.9512 12.6706 60.3818 12.3151 60.3818 11.627ZM66.4932 17.1367C65.4906 17.1367 64.6748 16.8086 64.0459 16.1523C63.417 15.4915 63.1025 14.6097 63.1025 13.5068V13.2744C63.1025 12.5407 63.2415 11.8867 63.5195 11.3125C63.8021 10.7337 64.194 10.2826 64.6953 9.95898C65.2012 9.63086 65.748 9.4668 66.3359 9.4668C67.2975 9.4668 68.0449 9.78353 68.5781 10.417C69.1113 11.0505 69.3779 11.9574 69.3779 13.1377V13.6641H64.3672C64.3854 14.3932 64.5973 14.9834 65.0029 15.4346C65.4131 15.8812 65.9326 16.1045 66.5615 16.1045C67.0081 16.1045 67.3864 16.0133 67.6963 15.8311C68.0062 15.6488 68.2773 15.4072 68.5098 15.1064L69.2822 15.708C68.6624 16.6605 67.7327 17.1367 66.4932 17.1367ZM66.3359 10.5059C65.8255 10.5059 65.3971 10.6927 65.0508 11.0664C64.7044 11.4355 64.4902 11.9551 64.4082 12.625H68.1133V12.5293C68.0768 11.8867 67.9036 11.39 67.5938 11.0391C67.2839 10.6836 66.8646 10.5059 66.3359 10.5059ZM75.1064 15.3252L77.6221 9.60352H79.2012V17H77.9365V11.6201L75.5439 17H74.6689L72.2285 11.5039V17H70.9639V9.60352H72.6045L75.1064 15.3252ZM87.6777 16.1045C88.1289 16.1045 88.5231 15.9678 88.8604 15.6943C89.1976 15.4209 89.3844 15.0791 89.4209 14.6689H90.6172C90.5944 15.0928 90.4486 15.4961 90.1797 15.8789C89.9108 16.2617 89.5508 16.5671 89.0996 16.7949C88.653 17.0228 88.179 17.1367 87.6777 17.1367C86.6706 17.1367 85.8685 16.8018 85.2715 16.1318C84.679 15.4574 84.3828 14.5368 84.3828 13.3701V13.1582C84.3828 12.4382 84.515 11.7979 84.7793 11.2373C85.0436 10.6768 85.4219 10.2415 85.9141 9.93164C86.4108 9.62174 86.9964 9.4668 87.6709 9.4668C88.5003 9.4668 89.1885 9.71517 89.7354 10.2119C90.2868 10.7087 90.5807 11.3535 90.6172 12.1465H89.4209C89.3844 11.668 89.2021 11.276 88.874 10.9707C88.5505 10.6608 88.1494 10.5059 87.6709 10.5059C87.0283 10.5059 86.5293 10.7383 86.1738 11.2031C85.8229 11.6634 85.6475 12.3311 85.6475 13.2061V13.4453C85.6475 14.2975 85.8229 14.9538 86.1738 15.4141C86.5247 15.8743 87.026 16.1045 87.6777 16.1045ZM95.1084 17.1367C94.1058 17.1367 93.29 16.8086 92.6611 16.1523C92.0322 15.4915 91.7178 14.6097 91.7178 13.5068V13.2744C91.7178 12.5407 91.8568 11.8867 92.1348 11.3125C92.4173 10.7337 92.8092 10.2826 93.3105 9.95898C93.8164 9.63086 94.3633 9.4668 94.9512 9.4668C95.9128 9.4668 96.6602 9.78353 97.1934 10.417C97.7266 11.0505 97.9932 11.9574 97.9932 13.1377V13.6641H92.9824C93.0007 14.3932 93.2126 14.9834 93.6182 15.4346C94.0283 15.8812 94.5479 16.1045 95.1768 16.1045C95.6234 16.1045 96.0016 16.0133 96.3115 15.8311C96.6214 15.6488 96.8926 15.4072 97.125 15.1064L97.8975 15.708C97.2777 16.6605 96.348 17.1367 95.1084 17.1367ZM94.9512 10.5059C94.4408 10.5059 94.0124 10.6927 93.666 11.0664C93.3197 11.4355 93.1055 11.9551 93.0234 12.625H96.7285V12.5293C96.6921 11.8867 96.5189 11.39 96.209 11.0391C95.8991 10.6836 95.4798 10.5059 94.9512 10.5059ZM104.241 10.6494H100.83V17H99.5586V9.60352H104.241V10.6494ZM104.87 13.2334C104.87 12.5088 105.011 11.8571 105.294 11.2783C105.581 10.6995 105.978 10.2529 106.483 9.93848C106.994 9.62402 107.575 9.4668 108.227 9.4668C109.234 9.4668 110.047 9.81543 110.667 10.5127C111.291 11.21 111.604 12.1374 111.604 13.2949V13.3838C111.604 14.1038 111.465 14.751 111.187 15.3252C110.913 15.8949 110.519 16.3392 110.004 16.6582C109.493 16.9772 108.906 17.1367 108.24 17.1367C107.238 17.1367 106.424 16.7881 105.8 16.0908C105.18 15.3936 104.87 14.4707 104.87 13.3223V13.2334ZM106.142 13.3838C106.142 14.2041 106.331 14.8626 106.709 15.3594C107.092 15.8561 107.602 16.1045 108.24 16.1045C108.883 16.1045 109.393 15.8538 109.771 15.3525C110.15 14.8467 110.339 14.1403 110.339 13.2334C110.339 12.4222 110.145 11.766 109.758 11.2646C109.375 10.7588 108.865 10.5059 108.227 10.5059C107.602 10.5059 107.099 10.7542 106.716 11.251C106.333 11.7477 106.142 12.4587 106.142 13.3838ZM112.636 15.9678L113.073 15.4277C113.565 14.7897 113.846 13.8327 113.914 12.5566L114.03 9.60352H118.795V15.9678H119.745V19.1738H118.48V17H113.319V19.1738H112.055L112.062 15.9678H112.636ZM114.133 15.9678H117.53V10.7725H115.254L115.179 12.5361C115.101 14.0081 114.753 15.152 114.133 15.9678ZM127.189 17H125.925V13.8418H122.527V17H121.256V9.60352H122.527V12.8096H125.925V9.60352H127.189V17ZM134.88 9.60352V17H133.608V14.1221H131.701L129.958 17H128.591L130.45 13.9307C129.976 13.7575 129.612 13.4909 129.356 13.1309C129.106 12.7663 128.98 12.3424 128.98 11.8594C128.98 11.1849 129.233 10.6426 129.739 10.2324C130.245 9.81771 130.922 9.60807 131.77 9.60352H134.88ZM130.252 11.873C130.252 12.2331 130.375 12.5247 130.621 12.748C130.867 12.9668 131.193 13.0785 131.599 13.083H133.608V10.6289H131.79C131.321 10.6289 130.947 10.7451 130.669 10.9775C130.391 11.2054 130.252 11.5039 130.252 11.873Z" fill="white"/>
</svg>
