<svg width="12" height="6" viewBox="0 0 12 6" fill="none" xmlns="http://www.w3.org/2000/svg">
<path fill-rule="evenodd" clip-rule="evenodd" d="M0.125877 5.87412C0.0859757 5.83432 0.0543185 5.78704 0.0327185 5.73499C0.0111185 5.68293 0 5.62713 0 5.57077C0 5.51441 0.0111185 5.45861 0.0327185 5.40656C0.0543185 5.3545 0.0859757 5.30722 0.125877 5.26742L5.26742 0.125877C5.30722 0.0859757 5.3545 0.0543187 5.40656 0.0327187C5.45861 0.0111186 5.51441 0 5.57077 0C5.62713 0 5.68293 0.0111186 5.73499 0.0327187C5.78704 0.0543187 5.83432 0.0859757 5.87412 0.125877L11.0157 5.26742C11.0961 5.34787 11.1413 5.45699 11.1413 5.57077C11.1413 5.68455 11.0961 5.79367 11.0157 5.87412C10.9352 5.95458 10.8261 5.99978 10.7123 5.99978C10.5985 5.99978 10.4894 5.95458 10.409 5.87412L5.57077 1.03507L0.732579 5.87412C0.692779 5.91402 0.645497 5.94568 0.593444 5.96728C0.54139 5.98888 0.485586 6 0.429228 6C0.37287 6 0.317067 5.98888 0.265013 5.96728C0.212959 5.94568 0.165677 5.91402 0.125877 5.87412V5.87412Z" fill="#272727"/>
</svg>
