<svg width="26" height="26" viewBox="0 0 26 26" fill="none" xmlns="http://www.w3.org/2000/svg">
<path d="M6.76367 10.7399C7.02143 11.0835 7.40806 11.2983 7.83766 11.2983C8.26725 11.2983 8.69685 11.0406 8.91164 10.6969L10.2434 8.46301L11.0167 8.93556C11.0596 8.97852 11.1455 8.97852 11.1885 8.97852C11.3174 8.97852 11.4033 8.8926 11.4892 8.80668L11.704 8.42005H11.747L17.1169 9.27923L16.7303 9.79475C16.6443 9.88067 16.6014 9.96659 16.6014 10.1814C16.6014 10.3103 16.7303 10.3532 16.8162 10.4391L23.0023 14.9499C23.0883 14.9928 23.1742 15.0358 23.3031 15.0358C23.4749 15.0358 23.6038 14.9928 23.6897 14.864L25.3651 12.5442C25.451 12.4582 25.5369 12.2434 25.494 12.1146C25.451 11.9857 25.4081 11.9427 25.3221 11.8568L19.136 7.43198C18.9212 7.3031 18.6205 7.34606 18.4916 7.5179L17.8042 8.46301L12.3054 7.60382L12.3914 7.43198C12.4343 7.34606 12.4773 7.21718 12.4343 7.13126C12.3914 7.04534 12.3484 7.00238 12.2625 6.95942L11.4892 6.44391L12.735 4.38186C12.9928 4.03818 12.9928 3.60859 12.8639 3.22195C12.6921 2.83532 12.3914 2.57756 12.0047 2.44868L2.12405 0.0429565C1.6515 -0.0859218 1.13599 0.0859159 0.878229 0.51551C0.534554 0.945104 0.534554 1.50358 0.878229 1.93317L6.76367 10.7399ZM19.0071 8.46301L24.42 12.4153L23.3031 13.9189L17.8472 9.96659L19.0071 8.46301ZM11.6181 7.34606L11.1026 8.11933L10.5011 7.73269L8.39613 6.40095C8.18133 6.27207 8.13837 6.01432 8.26725 5.79952L8.31021 5.7136C8.43909 5.4988 8.69685 5.45584 8.91164 5.58472L11.6181 7.34606ZM1.60854 1.03102C1.6515 0.988064 1.73742 0.945104 1.78038 0.945104H1.8663L11.704 3.35083C11.7899 3.35083 11.9188 3.43675 11.9618 3.52267C12.0047 3.60859 12.0047 3.73747 11.9188 3.82339L10.673 5.88544L9.21236 4.94033C8.73981 4.63962 8.09541 4.76849 7.7947 5.24105L7.62286 5.4988C7.49398 5.75656 7.45102 6.05728 7.49398 6.27207C7.5799 6.52983 7.66582 6.74463 7.96654 6.91647L9.55603 7.90453L8.18133 10.1384C8.13837 10.2243 8.00949 10.3103 7.88062 10.3103C7.75174 10.3103 7.66582 10.2673 7.5799 10.1814L1.60854 1.3747C1.52262 1.28878 1.52262 1.1599 1.60854 1.03102ZM8.39613 14.821L7.3651 15.852C7.23622 15.9809 7.23622 16.1957 7.3651 16.3246C7.40806 16.3675 7.49398 16.4105 7.5799 16.4105C7.66582 16.4105 7.75174 16.4105 7.83766 16.3246L8.86868 15.2936C8.99756 15.1647 8.99756 14.9499 8.86868 14.821C8.7398 14.6921 8.52501 14.6921 8.39613 14.821ZM8.39613 16.3675L7.3651 17.3986C7.23622 17.5274 7.23622 17.7422 7.3651 17.8711C7.40806 17.9141 7.49398 17.957 7.5799 17.957C7.66582 17.957 7.75174 17.9141 7.83766 17.8711L8.86868 16.8401C8.99756 16.7112 8.99756 16.4964 8.86868 16.3675C8.7398 16.2387 8.52501 16.2387 8.39613 16.3675ZM0.319757 23.6706C0.405676 23.6706 0.491594 23.6706 0.534554 23.6277L1.56558 22.5967C1.69446 22.4678 1.69446 22.253 1.56558 22.1241C1.4367 21.9952 1.2219 21.9952 1.09303 22.1241L0.104959 23.1122C-0.0239188 23.241 -0.0239188 23.4558 0.104959 23.5847C0.147919 23.6277 0.233838 23.6706 0.319757 23.6706ZM0.319757 25.2172C0.405676 25.2172 0.491594 25.1742 0.534554 25.1313L1.56558 24.1002C1.69446 23.9714 1.69446 23.7566 1.56558 23.6277C1.4367 23.4988 1.2219 23.4988 1.09303 23.6277L0.104959 24.6587C-0.0239188 24.7876 -0.0239188 25.0024 0.104959 25.1313C0.147919 25.1742 0.233838 25.2172 0.319757 25.2172ZM14.926 23.6706C15.0119 23.6706 15.0978 23.6706 15.1837 23.5847L16.2147 22.5537C16.3436 22.4248 16.3436 22.21 16.2147 22.0811C16.0859 21.9523 15.8711 21.9523 15.7422 22.0811L14.7112 23.1122C14.5823 23.241 14.5823 23.4558 14.7112 23.5847C14.7541 23.6277 14.84 23.6706 14.926 23.6706ZM14.926 25.2172C15.0119 25.2172 15.0978 25.1742 15.1837 25.1313L16.2147 24.1002C16.3436 23.9714 16.3436 23.7566 16.2147 23.6277C16.0859 23.4988 15.8711 23.4988 15.7422 23.6277L14.7112 24.6587C14.5823 24.7876 14.5823 25.0024 14.7112 25.1313C14.7541 25.1742 14.84 25.2172 14.926 25.2172Z" fill="#5661CB"/>
</svg>
