<svg width="14" height="10" viewBox="0 0 14 10" fill="none" xmlns="http://www.w3.org/2000/svg">
<path d="M13.8601 1.75948L13.1588 1.05818C13.0653 0.964525 12.9577 0.917847 12.8359 0.917847C12.7145 0.917847 12.6069 0.964525 12.5135 1.05818L7.00007 6.57128L1.48692 1.05832C1.39342 0.964672 1.28582 0.917994 1.16426 0.917994C1.04265 0.917994 0.93504 0.964672 0.841585 1.05832L0.14033 1.75968C0.0466783 1.85313 0 1.96074 0 2.08235C0 2.20386 0.0468257 2.31146 0.14033 2.40492L6.6774 8.94214C6.77086 9.03564 6.87851 9.08237 7.00007 9.08237C7.12163 9.08237 7.22909 9.03564 7.3225 8.94214L13.8601 2.40492C13.9536 2.31142 14 2.20381 14 2.08235C14 1.96074 13.9536 1.85313 13.8601 1.75948Z" fill="black"/>
</svg>
