<svg width="19" height="36" viewBox="0 0 19 36" fill="none" xmlns="http://www.w3.org/2000/svg">
<path fill-rule="evenodd" clip-rule="evenodd" d="M18.3612 0.401167C18.2368 0.274003 18.089 0.173112 17.9263 0.104273C17.7636 0.0354343 17.5891 0 17.413 0C17.2368 0 17.0624 0.0354343 16.8997 0.104273C16.737 0.173112 16.5892 0.274003 16.4648 0.401167L0.393433 16.7872C0.26871 16.914 0.169756 17.0647 0.10224 17.2306C0.0347228 17.3965 -3.05176e-05 17.5743 -3.05176e-05 17.7539C-3.05176e-05 17.9335 0.0347228 18.1114 0.10224 18.2773C0.169756 18.4432 0.26871 18.5939 0.393433 18.7207L16.4648 35.1067C16.7162 35.3631 17.0573 35.5071 17.413 35.5071C17.7686 35.5071 18.1097 35.3631 18.3612 35.1067C18.6127 34.8503 18.7539 34.5025 18.7539 34.1399C18.7539 33.7773 18.6127 33.4295 18.3612 33.1731L3.23538 17.7539L18.3612 2.33471C18.4859 2.20787 18.5849 2.05719 18.6524 1.89129C18.7199 1.7254 18.7546 1.54755 18.7546 1.36794C18.7546 1.18833 18.7199 1.01048 18.6524 0.844589C18.5849 0.678694 18.4859 0.52801 18.3612 0.401167V0.401167Z" fill="#5661CB"/>
</svg>
