<svg width="17" height="17" fill="none" xmlns="http://www.w3.org/2000/svg"><path d="M6.008 17c.703 0 1.272-.582 1.272-1.3 0-.718-.57-1.3-1.272-1.3-.702 0-1.272.582-1.272 1.3 0 .718.57 1.3 1.272 1.3zm7.727 0c.703 0 1.272-.582 1.272-1.3 0-.718-.57-1.3-1.272-1.3-.702 0-1.272.582-1.272 1.3 0 .718.57 1.3 1.272 1.3zM17 2.63c-.05-.107-.075-.537-.076-.644A.784.784 0 0117 1.664H5.037l.63.965H17z" fill="#5661CB"/><path d="M15.43 6.312h-.237l-.706 3.177H6.008L3.425 1.13a.58.58 0 00-.373-.375L.734.026a.556.556 0 00-.432.042.577.577 0 00-.277.342.592.592 0 00.041.442.57.57 0 00.335.283l2.03.635 2.594 8.378-.927.774-.074.075a1.559 1.559 0 00-.045 1.959c.154.191.35.343.572.444.221.1.463.146.705.133h9.434a.56.56 0 00.4-.169.584.584 0 000-.817.559.559 0 00-.4-.169H5.166a.373.373 0 01-.318-.198.393.393 0 01.001-.38l1.363-1.155h8.727a.56.56 0 00.361-.122.58.58 0 00.204-.329l.888-3.992c-.315.074-.638.11-.961.11z" fill="#5661CB"/></svg>