<svg width="20" height="20" fill="none" xmlns="http://www.w3.org/2000/svg"><path d="M18.75 0H1.25C.911 0 .618.124.371.371S0 .911 0 1.25v17.5c0 .338.124.631.371.879.247.247.54.371.879.371h17.5c.338 0 .631-.124.879-.371.247-.248.371-.54.371-.879V1.25A1.248 1.248 0 0018.75 0zm0 18.75H1.25V1.25h17.5v17.5zM4.375 6.875h1.25v1.25a.617.617 0 00.625.625.617.617 0 00.625-.625v-1.25h1.25c.17 0 .316-.059.44-.176a.58.58 0 00.185-.44.612.612 0 00-.186-.448.6.6 0 00-.439-.186h-1.25v-1.25a.6.6 0 00-.186-.44.6.6 0 00-.439-.185.6.6 0 00-.44.186.6.6 0 00-.185.439v1.25h-1.25a.6.6 0 00-.44.186.612.612 0 00-.185.449.58.58 0 00.186.44.62.62 0 00.439.175zm4.092 4.678a.612.612 0 00-.45-.186.596.596 0 00-.439.176L6.25 12.871l-1.328-1.328a.596.596 0 00-.44-.176.612.612 0 00-.449.186.6.6 0 00-.185.44c0 .168.065.312.195.429l1.328 1.328-1.328 1.328a.655.655 0 00-.166.283.544.544 0 000 .323.66.66 0 00.166.273.484.484 0 00.195.146.628.628 0 00.489 0 .484.484 0 00.195-.146l1.328-1.309 1.328 1.309a.484.484 0 00.195.146.628.628 0 00.489 0 .484.484 0 00.195-.146c.3-.286.3-.58 0-.879L7.129 13.75l1.328-1.328a.556.556 0 00.195-.43.6.6 0 00-.185-.44zm3.408-4.678h3.75c.17 0 .316-.059.44-.176a.58.58 0 00.185-.44.612.612 0 00-.186-.448.6.6 0 00-.439-.186h-3.75a.6.6 0 00-.44.186.612.612 0 00-.185.449.58.58 0 00.185.44c.124.116.27.175.44.175zm0 6.25h3.75c.17 0 .316-.059.44-.176a.58.58 0 00.185-.44.612.612 0 00-.186-.449.6.6 0 00-.439-.185h-3.75a.6.6 0 00-.44.185.612.612 0 00-.185.45.58.58 0 00.185.44c.124.116.27.175.44.175zm0 2.5h3.75c.17 0 .316-.059.44-.176a.58.58 0 00.185-.44.612.612 0 00-.186-.449.6.6 0 00-.439-.185h-3.75a.6.6 0 00-.44.185.612.612 0 00-.185.45.58.58 0 00.185.44c.124.116.27.175.44.175z" fill="#5661CB"/></svg>