<svg width="49" height="49" fill="none" xmlns="http://www.w3.org/2000/svg"><path d="M29.083 20.058a2 2 0 012-2h1.032a4 4 0 013.24 1.656l3.528 4.878h-9.8v-4.534z" stroke="#5661CB" stroke-width="1.633" stroke-linecap="round" stroke-linejoin="round"/><path d="M29.083 24.592v-.817a.817.817 0 00-.816.817h.816zm9.8 0h.817a.817.817 0 00-.817-.817v.817zm-9.8 6.533h-.816c0 .451.365.817.816.817v-.817zm1.995 0v.817a.817.817 0 00.786-.596l-.786-.221zm.117-.338l.755.312-.755-.312zm1.633-1.634l-.312-.754.312.754zm2.31 0l.313-.754-.313.754zm1.634 1.634l-.755.312.755-.312zm.117.338l-.786.221c.099.352.42.596.786.596v-.817zm1.994 0v.817a.817.817 0 00.817-.817h-.817zm-9.8-5.717h9.8v-1.633h-9.8v1.633zm.817 5.717v-6.533h-1.633v6.533H29.9zm1.178-.817h-1.995v1.634h1.995v-1.634zm.786 1.038a2.21 2.21 0 01.086-.247l-1.51-.625a3.81 3.81 0 00-.148.43l1.572.442zm.086-.247c.223-.54.652-.968 1.19-1.191l-.624-1.51a3.835 3.835 0 00-2.075 2.076l1.509.625zm1.19-1.191a2.2 2.2 0 011.686 0l.625-1.51a3.835 3.835 0 00-2.935 0l.625 1.51zm1.686 0a2.2 2.2 0 011.191 1.191l1.51-.625A3.835 3.835 0 0035.45 28.4l-.625 1.509zm1.191 1.191c.034.081.062.163.086.247l1.572-.442a3.831 3.831 0 00-.149-.43l-1.509.625zm2.866-.79H36.89v1.633h1.994v-1.634zm-.816-5.717v6.533H39.7v-6.533h-1.633z" fill="#5661CB"/><path d="M32.828 29.153a3.018 3.018 0 012.31 0v0c.74.307 1.327.894 1.634 1.634v0c.306.74.306 1.57 0 2.31v0a3.018 3.018 0 01-1.634 1.633v0c-.74.306-1.57.306-2.31 0v0a3.018 3.018 0 01-1.633-1.633v0a3.018 3.018 0 010-2.31v0a3.018 3.018 0 011.633-1.634v0z" stroke="#5661CB" stroke-width="1.633" stroke-linecap="round" stroke-linejoin="round"/><path d="M11.117 31.125H10.3c0 .451.366.817.817.817v-.817zm2.403 0v.817a.817.817 0 00.786-.596l-.786-.221zm.117-.338l.754.312-.754-.312zm1.633-1.634l.313.755-.313-.755zm2.31 0l-.313.755.313-.755zm1.633 1.634l.755-.313-.755.313zm.117.338l-.786.221c.1.352.42.596.787.596v-.817zm9.753 0v.817a.817.817 0 00.817-.817h-.817zm-17.15-14.7c0-.451.366-.817.817-.817v-1.633a2.45 2.45 0 00-2.45 2.45h1.633zm0 14.7v-14.7H10.3v14.7h1.633zm1.587-.817h-2.403v1.634h2.403v-1.634zm.786 1.038a2.19 2.19 0 01.085-.247l-1.509-.625a3.977 3.977 0 00-.149.43l1.573.442zm.085-.247a2.2 2.2 0 011.192-1.191l-.625-1.51a3.835 3.835 0 00-2.076 2.076l1.51.625zm1.192-1.191a2.2 2.2 0 011.684 0l.625-1.51a3.835 3.835 0 00-2.934 0l.625 1.51zm1.684 0c.54.223.968.652 1.192 1.191l1.509-.625a3.835 3.835 0 00-2.076-2.075l-.625 1.509zm1.192 1.191c.033.081.062.163.085.247l1.573-.442a3.805 3.805 0 00-.15-.43l-1.508.625zm10.624-.79h-9.752v1.633h9.752v-1.634zm-.816-13.884v14.7H29.9v-14.7h-1.633zm-.817-.817c.451 0 .817.366.817.817H29.9a2.45 2.45 0 00-2.45-2.45v1.633zm-14.7 0h14.7v-1.633h-14.7v1.633z" fill="#5661CB"/><path d="M15.27 29.153a3.018 3.018 0 012.31 0v0c.74.307 1.327.894 1.633 1.634v0c.307.74.307 1.57 0 2.31v0a3.018 3.018 0 01-1.633 1.633v0c-.74.306-1.57.306-2.31 0v0a3.018 3.018 0 01-1.633-1.633v0a3.018 3.018 0 010-2.31v0a3.018 3.018 0 011.633-1.634v0z" stroke="#5661CB" stroke-width="1.633" stroke-linecap="round" stroke-linejoin="round"/><rect x="1" y="3" width="48" height="44" rx="8" fill="#9FA6EE" fill-opacity=".1"/></svg>