<svg width="26" height="20" fill="none" xmlns="http://www.w3.org/2000/svg"><path d="M19.609 9.375c-.249.031-.435.219-.435.438 0 .218.186.406.435.406 0 0 .713.031 1.954 1.281l.466.469H19.67a.426.426 0 00-.435.437c0 .25.186.438.435.438h4.312l-.62-.719c-.031-.031-.155-.188-1.21-1.219-1.49-1.5-2.451-1.531-2.544-1.531z" fill="#5661CB"/><path d="M26 12.219l-2.637-2.656c-1.52-1.75-3.475-2.032-4.964-2.094V0H0v16.938h1.83c-.03.187-.03.343-.03.53A2.532 2.532 0 004.313 20c1.396 0 2.513-1.156 2.513-2.531 0-.188-.031-.344-.031-.532h9.152c-.03.188-.03.344-.03.532A2.532 2.532 0 0018.43 20c1.365 0 2.513-1.156 2.513-2.531 0-.188-.031-.375-.062-.532h5.088V12.22H26zM4.313 19.125a1.675 1.675 0 01-1.583-2.219c.093-.343.342-.656.652-.875.28-.187.59-.312.93-.312.342 0 .683.094.931.312.31.219.528.532.652.875.031.188.093.344.093.532 0 .937-.745 1.687-1.675 1.687zm11.976-3.063H6.453a2.529 2.529 0 00-2.11-1.156c-.868 0-1.675.469-2.11 1.156H.87V.876h16.69v14.188a2.523 2.523 0 00-1.272 1zm2.14 3.063a1.674 1.674 0 01-1.582-2.219c.093-.343.341-.656.652-.875.279-.187.59-.312.93-.312.342 0 .652.094.931.281.31.188.528.531.652.875.062.188.093.344.093.531-.031.969-.776 1.719-1.675 1.719zm6.671-3.063h-4.592a2.488 2.488 0 00-2.11-1.156h-.03V8.344c1.954.062 3.288.625 4.312 1.812l2.39 2.438v3.469h.03z" fill="#5661CB"/></svg>