<svg width="19" height="20" fill="none" xmlns="http://www.w3.org/2000/svg"><path d="M6.68 3.914h-.15a.149.149 0 00.149-.148v.148h5.64v-.148a.15.15 0 00.149.148h-.149V5.25h1.336V3.766c0-.655-.532-1.188-1.187-1.188H6.53c-.655 0-1.187.533-1.187 1.188V5.25H6.68V3.914zm9.35 1.336H2.97a.593.593 0 00-.594.594v.593a.15.15 0 00.148.149h1.121l.458 9.704c.03.633.553 1.132 1.186 1.132h8.424c.635 0 1.156-.497 1.186-1.132l.458-9.704h1.12a.149.149 0 00.149-.149v-.593a.593.593 0 00-.594-.594zm-2.46 10.836H5.431l-.45-9.5h9.037l-.449 9.5z" fill="#5661CB"/></svg>