<svg width="50" height="49" fill="none" xmlns="http://www.w3.org/2000/svg"><path d="M31.096 15.785l-11.608 18.43m-.269-13.073c-1.134-1-1.134-2.62 0-3.62v0c1.133-1 2.97-1 4.104 0v0c1.133 1 1.133 2.62 0 3.62v0c-1.134 1-2.971 1-4.104 0v0zm8.125 11.336c-1.133-1-1.133-2.62 0-3.62v0c1.133-1 2.97-1 4.104 0v0c1.133 1 1.133 2.62 0 3.62v0c-1.133 1-2.97 1-4.104 0v0z" stroke="#5661CB" stroke-width="1.633" stroke-linecap="round" stroke-linejoin="round"/><rect x="1.333" y="3" width="48" height="44" rx="8" fill="#9FA6EE" fill-opacity=".1"/></svg>