<svg width="31" height="31" fill="none" xmlns="http://www.w3.org/2000/svg"><g clip-path="url(#clip0)" fill="#5661CB"><path d="M17.227 2.105v2.277h2.276a56.663 56.663 0 00-2.276-2.277zM3.523 10.396c0 .215.214.43.43.43h13.446c.214 0 .43-.215.43-.43a.462.462 0 00-.43-.43H3.952a.462.462 0 00-.43.43zm13.876 3.007H3.952a.462.462 0 00-.43.43c0 .215.216.43.43.43H17.4c.214 0 .43-.215.43-.43a.43.43 0 00-.43-.43zm0 3.437H3.952a.462.462 0 00-.43.43c0 .215.216.43.43.43H17.4c.214 0 .43-.215.43-.43a.43.43 0 00-.43-.43zm0 3.437H3.952a.462.462 0 00-.43.43c0 .214.216.429.43.429H17.4c.214 0 .43-.215.43-.43a.407.407 0 00-.43-.43z"/><path d="M21.093 4.296C18.473 1.632 17.527.687 17.098.344c-.086-.13-.258-.215-.473-.215H.601C.258.129 0 .387 0 .687V29.9c0 .343.258.601.601.601h20.191a.615.615 0 00.602-.601V4.854c0-.128-.043-.3-.172-.386-.043-.043-.086-.13-.129-.172zm-3.866-2.191c.644.601 1.503 1.504 2.277 2.277h-2.277V2.105zm2.964 27.236H1.16V1.29h14.95v3.65c0 .13.043.301.172.387a.525.525 0 00.386.172h3.523V29.34zM30.329 0h-5.67a.587.587 0 00-.602.601V29.9c0 .3.258.601.602.601h5.67a.615.615 0 00.602-.601V.6c-.043-.342-.301-.6-.602-.6zm-.601 2.663h-1.46a.462.462 0 00-.43.43c0 .215.214.43.43.43h1.46V6.1h-1.46a.462.462 0 00-.43.43c0 .215.214.43.43.43h1.46v2.577h-1.46a.462.462 0 00-.43.43c0 .214.214.43.43.43h1.46v2.577h-1.46a.462.462 0 00-.43.43c0 .214.214.429.43.429h1.46v2.105h-1.46a.462.462 0 00-.43.43c0 .214.214.43.43.43h1.46v2.577h-1.46a.462.462 0 00-.43.43c0 .214.214.429.43.429h1.46v2.577h-1.46a.462.462 0 00-.43.43c0 .215.214.43.43.43h1.46v2.577h-1.46a.462.462 0 00-.43.43c0 .215.214.43.43.43h1.46v2.19h-4.51V1.16h4.51v1.503z"/></g><defs><clipPath id="clip0"><path fill="#fff" d="M0 0h30.888v30.501H0z"/></clipPath></defs></svg>