<svg width="23" height="26" fill="none" xmlns="http://www.w3.org/2000/svg"><path d="M11.377 25.101a9.882 9.882 0 01-.046.041l-.047-.04a54.58 54.58 0 01-5-5.024c-1.367-1.575-2.721-3.35-3.73-5.15C1.541 13.12.907 11.344.907 9.75c0-2.385 1.075-4.692 3.023-6.406C5.88 1.626 8.541.65 11.33.65c2.79 0 5.45.976 7.401 2.694 1.948 1.714 3.023 4.021 3.023 6.406 0 1.593-.634 3.37-1.647 5.179-1.009 1.8-2.363 3.574-3.73 5.149a54.593 54.593 0 01-5 5.023zm-.046-9.826c1.616 0 3.18-.565 4.344-1.59 1.168-1.028 1.842-2.441 1.842-3.935 0-1.494-.674-2.907-1.842-3.935-1.165-1.026-2.729-1.59-4.345-1.59-1.615 0-3.18.564-4.344 1.59C5.819 6.843 5.144 8.256 5.144 9.75c0 1.494.675 2.907 1.842 3.935 1.165 1.025 2.729 1.59 4.345 1.59z" stroke="#5661CB" stroke-width="1.3"/></svg>