<svg width="116" height="23" fill="none" xmlns="http://www.w3.org/2000/svg"><path d="M0 0h116c-4.173 11-4.59 11 0 23H0V0z" fill="#D41A36"/><path d="M22.682 6.047V16h-1.313V7.127h-3.568l-.178 3.944c-.068 1.322-.205 2.315-.41 2.98-.2.666-.497 1.156-.889 1.47-.392.31-.916.47-1.572.479h-.43v-1.073l.273-.014c.424-.032.75-.168.977-.41.228-.246.401-.636.52-1.169.118-.533.203-1.354.253-2.461l.205-4.826h6.132zm4.607 8.1l1.723-5.543h1.353l-2.973 8.538c-.46 1.23-1.192 1.845-2.195 1.845l-.239-.02-.472-.09v-1.024l.342.027c.428 0 .761-.087.998-.26.242-.173.44-.49.595-.95l.28-.752-2.639-7.314h1.381l1.846 5.544zM37.085 16h-1.272v-2.68a6.71 6.71 0 01-1.709.22c-.925 0-1.631-.238-2.119-.712-.483-.474-.729-1.148-.738-2.023V8.597h1.265v2.249c.023 1.103.553 1.654 1.593 1.654.583 0 1.153-.073 1.709-.219V8.604h1.271V16zm3.411-7.396v6.364h2.707V8.604h1.265v6.364h2.7V8.604h1.272V16h-9.215V8.604h1.271zM55.002 16c-.073-.146-.132-.406-.178-.78-.588.611-1.29.917-2.105.917-.73 0-1.329-.205-1.798-.616a2.016 2.016 0 01-.697-1.572c0-.77.291-1.367.875-1.79.588-.43 1.412-.643 2.474-.643h1.23v-.581c0-.443-.131-.793-.396-1.053-.264-.264-.654-.397-1.169-.397-.45 0-.83.114-1.135.342-.305.228-.458.504-.458.827h-1.271c0-.369.13-.724.39-1.066a2.7 2.7 0 011.066-.82 3.62 3.62 0 011.483-.301c.853 0 1.52.214 2.003.642.483.424.734 1.01.752 1.757v3.405c0 .678.087 1.219.26 1.62V16h-1.326zm-2.099-.964a2.22 2.22 0 001.128-.307 1.86 1.86 0 00.773-.8V12.41h-.992c-1.549 0-2.324.454-2.324 1.36 0 .397.132.707.397.93.264.223.604.335 1.018.335zm10.801-6.432V16h-1.271v-2.878h-1.908L58.782 16h-1.367l1.86-3.07c-.474-.172-.84-.44-1.094-.8a2.19 2.19 0 01-.376-1.27c0-.675.253-1.217.758-1.628.506-.414 1.183-.624 2.03-.628h3.111zm-4.628 2.269c0 .36.123.652.37.875.245.219.571.33.977.335h2.01V9.629h-1.819c-.47 0-.843.116-1.12.349a1.102 1.102 0 00-.418.895zm10.24-2.27h1.272v6.365h3.404V8.604h1.265v6.364h.882l-.123 3.226H74.88V16h-5.565V8.604zm11.26 7.534c-1.003 0-1.82-.328-2.448-.985-.629-.66-.943-1.542-.943-2.645v-.233c0-.733.139-1.387.417-1.961a3.283 3.283 0 011.175-1.354 2.958 2.958 0 011.641-.492c.962 0 1.709.317 2.242.95.533.633.8 1.54.8 2.72v.527h-5.01c.017.73.23 1.32.635 1.77.41.447.93.67 1.559.67.446 0 .824-.09 1.134-.273.31-.182.581-.424.814-.725l.772.602c-.62.953-1.55 1.429-2.789 1.429zm-.158-6.631c-.51 0-.939.187-1.285.56-.346.37-.56.89-.643 1.559h3.705v-.096c-.036-.642-.21-1.139-.52-1.49-.31-.355-.728-.533-1.257-.533zM90.973 16h-1.265v-3.158h-3.397V16h-1.272V8.604h1.272v3.206h3.397V8.604h1.265V16zm6.603 0c-.073-.146-.132-.406-.178-.78-.587.611-1.29.917-2.105.917-.73 0-1.329-.205-1.798-.616a2.016 2.016 0 01-.697-1.572c0-.77.291-1.367.875-1.79.588-.43 1.413-.643 2.474-.643h1.23v-.581c0-.443-.131-.793-.396-1.053-.264-.264-.653-.397-1.168-.397-.452 0-.83.114-1.135.342-.306.228-.458.504-.458.827h-1.272c0-.369.13-.724.39-1.066a2.7 2.7 0 011.066-.82c.452-.2.946-.301 1.484-.301.852 0 1.52.214 2.003.642.483.424.733 1.01.752 1.757v3.405c0 .678.086 1.219.26 1.62V16h-1.327zm-2.098-.964c.396 0 .772-.102 1.128-.307.355-.206.612-.472.772-.8V12.41h-.991c-1.55 0-2.325.454-2.325 1.36 0 .397.133.707.397.93.264.223.604.335 1.019.335z" fill="#fff"/></svg>