<svg width="78" height="78" fill="none" xmlns="http://www.w3.org/2000/svg"><circle cx="39" cy="39" r="39" fill="#9FA6EE" fill-opacity=".1"/><g clip-path="url(#clip0)" fill="#5661CB"><path d="M41.227 26.105v2.277h2.277a56.6 56.6 0 00-2.277-2.277zm-13.704 8.291c0 .215.215.43.43.43h13.446c.214 0 .43-.215.43-.43a.462.462 0 00-.43-.43H27.952a.462.462 0 00-.43.43zm13.876 3.007H27.952a.462.462 0 00-.43.43c0 .215.216.43.43.43H41.4c.214 0 .43-.215.43-.43a.43.43 0 00-.43-.43zm0 3.437H27.952a.462.462 0 00-.43.43c0 .214.216.43.43.43H41.4c.214 0 .43-.216.43-.43a.43.43 0 00-.43-.43zm0 3.437H27.952a.462.462 0 00-.43.43c0 .214.216.429.43.429H41.4c.214 0 .43-.215.43-.43a.407.407 0 00-.43-.43z"/><path d="M45.093 28.296c-2.62-2.663-3.566-3.609-3.995-3.952-.086-.13-.258-.215-.473-.215H24.601c-.343 0-.601.258-.601.558V53.9c0 .343.258.601.601.601h20.191a.615.615 0 00.602-.601V28.854c0-.128-.043-.3-.172-.386-.043-.043-.086-.13-.129-.172zm-3.866-2.191c.644.601 1.503 1.504 2.277 2.277h-2.277v-2.277zm2.964 27.236H25.16V25.29h14.95v3.651c0 .13.043.301.172.387a.525.525 0 00.386.172h3.523v23.84zM54.329 24h-5.67a.587.587 0 00-.602.601V53.9c0 .3.258.601.602.601h5.67a.615.615 0 00.602-.601V24.6c-.043-.343-.3-.601-.602-.601zm-.601 2.663h-1.46a.462.462 0 00-.43.43c0 .215.215.43.43.43h1.46V30.1h-1.46a.462.462 0 00-.43.43c0 .215.215.43.43.43h1.46v2.577h-1.46a.462.462 0 00-.43.43c0 .214.215.43.43.43h1.46v2.577h-1.46a.462.462 0 00-.43.43c0 .214.215.429.43.429h1.46v2.105h-1.46a.462.462 0 00-.43.43c0 .214.215.43.43.43h1.46v2.577h-1.46a.462.462 0 00-.43.43c0 .214.215.429.43.429h1.46v2.578h-1.46a.462.462 0 00-.43.43c0 .214.215.429.43.429h1.46v2.577h-1.46a.462.462 0 00-.43.43c0 .215.215.43.43.43h1.46v2.19h-4.51V25.16h4.51v1.503z"/></g><defs><clipPath id="clip0"><path fill="#fff" transform="translate(24 24)" d="M0 0h30.888v30.501H0z"/></clipPath></defs></svg>