<svg width="22" height="21" fill="none" xmlns="http://www.w3.org/2000/svg"><path d="M10.335 1.19c.24-.6 1.09-.6 1.33 0l2.133 5.31c.102.256.342.43.616.449l5.71.387c.645.044.908.85.412 1.265l-4.393 3.67a.717.717 0 00-.235.724l1.396 5.551a.717.717 0 01-1.076.782l-4.847-3.043a.717.717 0 00-.762 0L5.77 19.328a.717.717 0 01-1.076-.782l1.397-5.55a.717.717 0 00-.236-.725L1.464 8.6a.717.717 0 01.411-1.265l5.71-.387a.717.717 0 00.617-.448l2.133-5.312z" stroke="#5661CB" stroke-width="1.433" stroke-linecap="square"/></svg>