<svg width="17" height="16" fill="none" xmlns="http://www.w3.org/2000/svg"><path fill-rule="evenodd" clip-rule="evenodd" d="M3.044 15.248c-.083.472.382.84.792.63l4.665-2.397 4.663 2.397c.41.21.875-.159.792-.63l-.881-5.025 3.743-3.565c.35-.334.167-.944-.301-1.01l-5.204-.74L8.993.312a.545.545 0 00-.985 0L5.688 4.91l-5.205.74c-.468.065-.65.675-.3 1.009l3.742 3.565-.881 5.026v-.002zm5.211-2.94L4.34 14.32l.737-4.204a.6.6 0 00-.173-.537L1.815 6.636l4.306-.612a.558.558 0 00.417-.306l1.963-3.886 1.96 3.886a.558.558 0 00.418.306l4.306.611-3.088 2.943a.6.6 0 00-.173.538l.737 4.204-3.916-2.012a.535.535 0 00-.49 0z" fill="#5661CB"/></svg>