<svg width="157" height="23" fill="none" xmlns="http://www.w3.org/2000/svg"><path d="M0 0h157c-5.647 11-6.212 11 0 23H0V0z" fill="#5661CB"/><path d="M22.757 17h-1.32V8.127H16.53V17h-1.312V7.047h7.54V17zm8.442-3.616c0 1.125-.257 2.032-.772 2.72-.515.689-1.212 1.033-2.092 1.033-.898 0-1.604-.285-2.12-.855v3.562h-1.264V9.604h1.155l.062.82c.515-.638 1.23-.957 2.146-.957.89 0 1.59.335 2.106 1.005.52.67.78 1.602.78 2.796v.116zm-1.264-.144c0-.834-.178-1.492-.534-1.975-.355-.483-.843-.725-1.462-.725-.766 0-1.34.34-1.723 1.019v3.534c.378.674.957 1.012 1.736 1.012.606 0 1.087-.24 1.442-.718.36-.483.54-1.199.54-2.147zm7.663-3.636h1.264V17h-1.264v-5.394L34.187 17h-1.265V9.604h1.265v5.4l3.41-5.4zM41.008 17V9.604h2.886c.984 0 1.738.173 2.262.519.529.342.793.845.793 1.51 0 .343-.102.653-.307.93-.206.274-.509.483-.91.63.447.104.805.31 1.074.615.273.305.41.67.41 1.093 0 .68-.25 1.199-.752 1.559-.497.36-1.201.54-2.112.54h-3.343zm1.265-3.247v2.228h2.092c.529 0 .923-.098 1.183-.293.264-.197.396-.472.396-.828 0-.738-.542-1.107-1.627-1.107h-2.044zm0-1.012h1.634c1.185 0 1.778-.346 1.778-1.039s-.561-1.05-1.682-1.073h-1.73v2.112zm9.687 4.396c-1.003 0-1.818-.328-2.447-.985-.63-.66-.944-1.542-.944-2.645v-.233c0-.733.14-1.387.417-1.961a3.284 3.284 0 011.176-1.354 2.958 2.958 0 011.64-.492c.962 0 1.71.317 2.243.95.533.633.8 1.54.8 2.72v.527h-5.011c.018.73.23 1.32.636 1.77.41.447.93.67 1.558.67.447 0 .825-.09 1.135-.273.31-.182.581-.424.814-.725l.772.602c-.62.952-1.55 1.429-2.789 1.429zm-.157-6.631c-.51 0-.94.187-1.285.56-.347.37-.561.89-.643 1.559h3.705v-.096c-.036-.642-.21-1.139-.52-1.49-.31-.355-.729-.533-1.257-.533zm8.579 1.121a.974.974 0 00-.397-.82c-.264-.205-.626-.308-1.087-.308-.446 0-.82.116-1.12.349-.297.232-.445.505-.445.82h-1.258c0-.643.27-1.169.807-1.58.538-.41 1.21-.614 2.016-.614.866 0 1.54.186 2.024.56.483.37.725.898.725 1.586 0 .333-.1.638-.301.916-.2.278-.486.5-.855.663.861.292 1.292.866 1.292 1.723 0 .679-.262 1.217-.786 1.613-.524.397-1.224.595-2.099.595-.852 0-1.556-.207-2.112-.622-.551-.42-.827-.985-.827-1.695h1.258c0 .36.16.67.478.93.324.254.725.382 1.203.382.483 0 .873-.112 1.17-.335a1.04 1.04 0 00.444-.868c0-.415-.126-.711-.376-.889-.246-.182-.631-.273-1.156-.273h-1.264v-1.067h1.374c.861-.022 1.292-.378 1.292-1.066zm6.111 5.51c-1.002 0-1.818-.328-2.447-.985-.629-.66-.944-1.542-.944-2.645v-.233c0-.733.14-1.387.418-1.961a3.284 3.284 0 011.175-1.354 2.958 2.958 0 011.64-.492c.963 0 1.71.317 2.243.95.533.633.8 1.54.8 2.72v.527h-5.01c.017.73.23 1.32.635 1.77.41.447.93.67 1.558.67.447 0 .825-.09 1.135-.273.31-.182.581-.424.814-.725l.772.602c-.62.952-1.55 1.429-2.789 1.429zm-.157-6.631c-.51 0-.939.187-1.285.56-.347.37-.56.89-.643 1.559h3.705v-.096c-.036-.642-.21-1.139-.52-1.49-.31-.355-.728-.533-1.257-.533zm8.77 4.82l2.516-5.722h1.58V17h-1.266v-5.38L75.544 17h-.875l-2.44-5.496V17h-1.265V9.604h1.64l2.502 5.721zm12.572.779c.45 0 .845-.137 1.182-.41a1.44 1.44 0 00.56-1.026h1.197a2.293 2.293 0 01-.437 1.21 2.875 2.875 0 01-1.08.916 3.087 3.087 0 01-1.422.342c-1.007 0-1.81-.335-2.406-1.005-.593-.675-.89-1.595-.89-2.762v-.212c0-.72.133-1.36.397-1.92a3.032 3.032 0 011.135-1.306c.497-.31 1.082-.465 1.757-.465.83 0 1.517.248 2.064.745.552.497.846 1.142.882 1.934h-1.196c-.037-.478-.219-.87-.547-1.175-.323-.31-.725-.465-1.203-.465-.643 0-1.142.232-1.497.697-.351.46-.527 1.128-.527 2.003v.24c0 .851.176 1.508.527 1.968.35.46.852.69 1.504.69zm7.43 1.032c-1.002 0-1.818-.328-2.447-.985-.629-.66-.943-1.542-.943-2.645v-.233c0-.733.139-1.387.417-1.961a3.283 3.283 0 011.175-1.354 2.958 2.958 0 011.641-.492c.962 0 1.71.317 2.242.95.534.633.8 1.54.8 2.72v.527h-5.01c.018.73.23 1.32.635 1.77.41.447.93.67 1.559.67.446 0 .825-.09 1.134-.273a2.84 2.84 0 00.814-.725l.772.602c-.62.952-1.549 1.429-2.789 1.429zm-.157-6.631c-.51 0-.939.187-1.285.56-.346.37-.56.89-.643 1.559h3.706v-.096c-.037-.642-.21-1.139-.52-1.49-.31-.355-.73-.533-1.258-.533zm9.29.143h-3.411V17h-1.271V9.604h4.682v1.045zm.629 2.584c0-.724.141-1.376.424-1.955a3.221 3.221 0 011.189-1.34c.511-.314 1.092-.471 1.744-.471 1.007 0 1.82.348 2.44 1.046.624.697.937 1.624.937 2.782v.089c0 .72-.139 1.367-.417 1.941a3.119 3.119 0 01-1.183 1.333c-.511.32-1.098.479-1.764.479-1.002 0-1.816-.349-2.44-1.046-.62-.697-.93-1.62-.93-2.769v-.089zm1.272.15c0 .821.189 1.48.567 1.976.383.497.893.746 1.531.746.643 0 1.153-.251 1.531-.753.379-.505.568-1.212.568-2.119 0-.81-.194-1.467-.581-1.968a1.825 1.825 0 00-1.531-.76c-.625 0-1.128.25-1.511.746-.383.497-.574 1.208-.574 2.133zm6.494 2.585l.437-.54c.492-.638.773-1.595.841-2.871l.116-2.953h4.765v6.364h.95v3.206h-1.265V17h-5.161v2.174h-1.264l.007-3.206h.574zm1.497 0h3.397v-5.195h-2.276l-.075 1.763c-.078 1.472-.426 2.616-1.046 3.432zM127.189 17h-1.264v-3.158h-3.398V17h-1.271V9.604h1.271v3.206h3.398V9.604h1.264V17zm7.691-7.396V17h-1.272v-2.878h-1.907L129.958 17h-1.367l1.859-3.07c-.474-.172-.838-.44-1.094-.8a2.194 2.194 0 01-.376-1.27c0-.675.253-1.217.759-1.628.506-.414 1.183-.624 2.031-.628h3.11zm-4.628 2.269c0 .36.123.652.369.875.246.219.572.33.978.335h2.009v-2.454h-1.818c-.469 0-.843.116-1.121.348a1.102 1.102 0 00-.417.896z" fill="#fff"/></svg>