<svg width="26" height="26" fill="none" xmlns="http://www.w3.org/2000/svg"><path d="M6.764 10.74a1.34 1.34 0 001.074.558c.43 0 .859-.257 1.074-.601l1.331-2.234.774.473c.043.043.129.043.171.043.13 0 .215-.086.301-.172l.215-.387h.043l5.37.86-.387.515c-.086.086-.129.172-.129.386 0 .13.13.172.215.258l6.186 4.51a.611.611 0 00.301.087c.172 0 .3-.043.387-.172l1.675-2.32c.086-.086.172-.3.129-.43a.547.547 0 00-.172-.257l-6.186-4.425c-.215-.129-.515-.086-.644.086l-.688.945-5.499-.86.086-.171c.043-.086.086-.215.043-.3a.335.335 0 00-.171-.173l-.774-.515 1.246-2.062c.258-.344.258-.773.129-1.16a1.391 1.391 0 00-.86-.773L2.125.043C1.651-.086 1.136.086.878.516c-.343.43-.343.988 0 1.417l5.886 8.807zm12.243-2.277l5.413 3.952-1.117 1.504-5.456-3.952 1.16-1.504zm-7.389-1.117l-.515.773-.602-.386L8.396 6.4c-.215-.129-.258-.387-.129-.601l.043-.086c.13-.215.387-.258.602-.13l2.706 1.762zM1.608 1.031A.326.326 0 011.78.945h.086l9.838 2.406c.086 0 .215.086.258.172a.265.265 0 01-.043.3l-1.246 2.062-1.46-.945c-.473-.3-1.118-.172-1.418.301l-.172.258c-.129.258-.172.558-.129.773.086.258.172.473.473.644l1.589.989-1.375 2.233a.362.362 0 01-.3.172.39.39 0 01-.301-.129L1.609 1.375c-.086-.086-.086-.215 0-.344zm6.788 13.79l-1.03 1.031a.337.337 0 000 .473.328.328 0 00.214.085c.086 0 .172 0 .258-.085l1.03-1.031a.337.337 0 000-.473.337.337 0 00-.472 0zm0 1.546L7.366 17.4a.337.337 0 000 .472.328.328 0 00.214.086.61.61 0 00.258-.086l1.03-1.03a.337.337 0 000-.474.337.337 0 00-.472 0zM.32 23.672c.086 0 .172 0 .215-.043l1.03-1.031a.337.337 0 000-.473.337.337 0 00-.472 0l-.988.988a.337.337 0 000 .473.328.328 0 00.215.086zm0 1.546a.328.328 0 00.215-.086l1.03-1.03a.337.337 0 000-.473.337.337 0 00-.472 0l-.988 1.03a.337.337 0 000 .473.328.328 0 00.215.086zm14.606-1.546c.086 0 .172 0 .258-.086l1.03-1.031a.337.337 0 000-.473.337.337 0 00-.472 0l-1.03 1.031a.337.337 0 000 .473.328.328 0 00.214.086zm0 1.546c.086 0 .172-.043.258-.086l1.03-1.03a.337.337 0 000-.473.337.337 0 00-.472 0l-1.03 1.03a.337.337 0 000 .473.328.328 0 00.214.086z" fill="#5661CB"/></svg>