<svg width="49" height="49" fill="none" xmlns="http://www.w3.org/2000/svg"><path fill-rule="evenodd" clip-rule="evenodd" d="M14.139 18.58v14.8a1.48 1.48 0 001.48 1.48H33.38a1.48 1.48 0 001.48-1.48v-14.8H14.14zm1.48-4.441a2.96 2.96 0 00-2.96 2.96v16.282a2.96 2.96 0 002.96 2.96H33.38a2.96 2.96 0 002.96-2.96V17.1a2.96 2.96 0 00-2.96-2.96H15.62z" fill="#5661CB"/><path fill-rule="evenodd" clip-rule="evenodd" d="M17.84 12.658a.74.74 0 01.74.74v.74a.74.74 0 01-1.481 0v-.74a.74.74 0 01.74-.74zm13.321 0a.74.74 0 01.74.74v.74a.74.74 0 01-1.48 0v-.74a.74.74 0 01.74-.74z" fill="#5661CB"/><path d="M27.251 22.608l-3.486 7.817h-1.122l3.475-7.54h-4.556v-.879h5.69v.602z" fill="#5661CB"/><rect x="1" y="3" width="48" height="44" rx="8" fill="#9FA6EE" fill-opacity=".1"/></svg>